<?xml version="1.0" encoding="UTF-8" standalone="no"?>
<!DOCTYPE svg PUBLIC "-//W3C//DTD SVG 1.1//EN" "http://www.w3.org/Graphics/SVG/1.1/DTD/svg11.dtd">
<svg xmlns="http://www.w3.org/2000/svg" version="1.1" viewBox="0.00 0.00 259.00 223.00">
<g stroke-width="2.00" fill="none" stroke-linecap="butt">
<path stroke="#e3d5c8" vector-effect="non-scaling-stroke" d="
  M 24.78 12.20
  C 10.72 23.19 9.94 37.86 15.71 53.75"
/>
<path stroke="#b9bec0" vector-effect="non-scaling-stroke" d="
  M 15.71 53.75
  L 20.74 73.22"
/>
<path stroke="#90c2ec" vector-effect="non-scaling-stroke" d="
  M 20.74 73.22
  Q 21.85 84.42 21.39 92.93
  Q 20.88 102.46 17.74 137.50
  Q 17.23 143.25 13.62 153.60"
/>
<path stroke="#b9bec0" vector-effect="non-scaling-stroke" d="
  M 13.62 153.60
  Q 14.57 156.43 14.01 159.91"
/>
<path stroke="#90c2ec" vector-effect="non-scaling-stroke" d="
  M 14.01 159.91
  L 9.54 180.72"
/>
<path stroke="#b9bec0" vector-effect="non-scaling-stroke" d="
  M 9.54 180.72
  L 9.46 186.55"
/>
<path stroke="#90c2ec" vector-effect="non-scaling-stroke" d="
  M 9.46 186.55
  C 8.98 195.96 13.97 203.75 20.91 209.62"
/>
<path stroke="#e3d5c8" vector-effect="non-scaling-stroke" d="
  M 20.91 209.62
  Q 24.34 212.99 29.29 213.82"
/>
<path stroke="#90c2ec" vector-effect="non-scaling-stroke" d="
  M 29.29 213.82
  C 33.66 214.99 37.89 216.67 42.37 217.08
  C 54.25 218.18 63.71 218.93 76.95 216.39"
/>
<path stroke="#b9bec0" vector-effect="non-scaling-stroke" d="
  M 76.95 216.39
  L 81.25 215.29"
/>
<path stroke="#90c2ec" vector-effect="non-scaling-stroke" d="
  M 81.25 215.29
  L 93.47 213.05"
/>
<path stroke="#b9bec0" vector-effect="non-scaling-stroke" d="
  M 93.47 213.05
  L 107.78 213.17"
/>
<path stroke="#90c2ec" vector-effect="non-scaling-stroke" d="
  M 107.78 213.17
  L 119.94 214.79
  A 0.83 0.83 0.0 0 1 120.65 215.48
  L 121.06 218.27
  A 0.88 0.88 0.0 0 0 122.28 218.94
  C 132.88 214.27 142.57 215.70 153.61 217.76
  C 161.71 219.27 173.06 215.90 180.76 213.17"
/>
<path stroke="#b9bec0" vector-effect="non-scaling-stroke" d="
  M 180.76 213.17
  Q 182.99 213.07 184.78 212.07"
/>
<path stroke="#90c2ec" vector-effect="non-scaling-stroke" d="
  M 184.78 212.07
  L 190.50 210.77"
/>
<path stroke="#b9bec0" vector-effect="non-scaling-stroke" d="
  M 190.50 210.77
  Q 194.88 210.88 199.25 209.50"
/>
<path stroke="#90c2ec" vector-effect="non-scaling-stroke" d="
  M 199.25 209.50
  Q 209.95 209.21 220.21 211.74"
/>
<path stroke="#e3d5c8" vector-effect="non-scaling-stroke" d="
  M 220.21 211.74
  Q 220.81 213.00 222.77 212.73"
/>
<path stroke="#90c2ec" vector-effect="non-scaling-stroke" d="
  M 222.77 212.73
  C 225.12 213.64 234.87 216.91 235.92 213.08
  A 0.83 0.83 0.0 0 0 235.23 212.04
  Q 227.90 211.01 221.01 208.46
  Q 212.52 205.33 198.58 205.18
  Q 197.28 205.16 197.02 204.10"
/>
<path stroke="#b9bec0" vector-effect="non-scaling-stroke" d="
  M 197.02 204.10
  Q 196.45 201.80 194.69 202.06"
/>
<path stroke="#90c2ec" vector-effect="non-scaling-stroke" d="
  M 194.69 202.06
  Q 188.83 201.55 186.49 202.47
  C 177.43 206.01 169.43 209.59 159.04 209.76
  Q 158.67 209.77 158.51 209.92
  Q 158.15 210.27 158.85 210.93
  Q 159.21 211.26 159.69 211.22
  L 166.72 210.65
  Q 167.15 210.61 167.28 211.02
  Q 167.49 211.73 166.75 212.00
  C 163.49 213.16 159.01 212.70 156.08 212.78
  C 151.80 212.91 147.37 211.46 143.62 211.33
  Q 138.78 211.16 133.92 211.28
  Q 133.42 211.29 132.98 211.04
  C 131.02 209.90 127.03 210.68 124.61 210.24
  C 118.83 209.20 113.28 208.56 107.73 207.46
  A 0.49 0.48 -39.2 0 1 107.83 206.50
  Q 115.85 206.52 123.71 206.48
  C 124.40 206.48 125.00 206.05 125.19 205.44
  A 0.87 0.86 10.5 0 0 124.41 204.31
  C 109.85 203.65 97.71 206.19 83.47 209.67
  C 78.99 210.77 74.08 210.91 69.35 211.82
  C 55.53 214.49 31.20 213.12 21.08 204.45
  C 13.53 197.99 12.91 192.82 15.57 183.56
  C 17.21 177.83 22.61 170.35 20.54 164.19
  A 1.08 1.08 0.0 0 0 18.43 164.58
  Q 18.65 170.00 15.42 174.19
  A 0.28 0.28 0.0 0 1 14.92 173.99
  C 15.64 168.59 17.78 163.20 18.09 158.23
  C 18.34 154.27 17.78 151.16 19.03 147.26
  Q 21.76 138.74 22.48 129.84
  C 23.23 120.66 23.83 115.47 24.00 108.26
  A 0.83 0.83 0.0 0 1 25.06 107.48
  L 27.50 108.19
  A 0.84 0.84 0.0 0 0 28.58 107.39
  L 28.58 97.79"
/>
<path stroke="#b9bec0" vector-effect="non-scaling-stroke" d="
  M 28.58 97.79
  L 29.94 93.45"
/>
<path stroke="#90c2ec" vector-effect="non-scaling-stroke" d="
  M 29.94 93.45
  Q 31.77 82.85 28.07 73.41
  Q 27.68 72.41 26.58 72.82
  Q 26.12 72.99 26.25 73.46
  C 27.60 78.31 29.31 87.77 26.01 91.30
  Q 25.73 91.59 25.71 91.19
  C 25.31 84.43 25.54 77.60 24.30 71.10
  C 22.14 59.80 18.81 49.54 16.90 39.22"
/>
<path stroke="#e3d5c8" vector-effect="non-scaling-stroke" d="
  M 16.90 39.22
  Q 18.01 35.91 17.10 33.21"
/>
<path stroke="#90c2ec" vector-effect="non-scaling-stroke" d="
  M 17.10 33.21
  C 19.24 22.37 27.60 11.28 39.12 9.66
  C 45.55 8.76 55.15 11.89 62.12 13.07
  C 65.52 13.65 69.16 13.41 72.74 13.68
  C 74.06 13.79 75.41 13.19 76.84 13.73
  C 90.05 18.71 107.14 13.97 120.87 13.39
  C 129.68 13.02 137.49 11.59 145.83 13.64
  Q 153.21 15.46 157.65 16.30
  C 172.85 19.17 188.00 13.74 202.74 14.90
  C 211.97 15.63 222.75 18.50 228.75 26.25
  C 241.17 42.26 238.61 57.60 238.18 76.26
  Q 238.10 80.06 240.36 83.11
  A 1.03 1.02 -54.5 0 1 240.51 84.03
  Q 237.88 92.12 237.81 100.58
  C 237.73 110.29 237.45 119.98 237.75 129.68
  C 238.06 139.30 241.52 148.27 241.25 157.85
  C 240.88 170.61 236.74 183.31 236.23 195.00
  C 236.06 198.97 237.08 206.55 241.61 208.45
  A 1.01 1.01 0.0 0 0 242.90 207.04
  Q 241.09 203.62 240.71 199.50"
/>
<path stroke="#b9bec0" vector-effect="non-scaling-stroke" d="
  M 240.71 199.50
  L 240.82 194.51"
/>
<path stroke="#90c2ec" vector-effect="non-scaling-stroke" d="
  M 240.82 194.51
  Q 241.82 186.38 243.68 178.33
  C 244.48 174.88 244.44 171.39 244.90 167.84
  C 246.28 157.19 245.06 150.83 242.75 139.54
  Q 241.68 134.35 241.66 129.33
  C 241.58 112.86 240.45 95.45 246.48 79.89
  A 1.99 1.99 0.0 0 0 244.32 77.20
  L 242.39 77.49
  Q 241.44 77.64 241.45 76.67
  C 241.62 61.66 243.23 47.67 237.54 34.04"
/>
<path stroke="#e3d5c8" vector-effect="non-scaling-stroke" d="
  M 237.54 34.04
  C 236.00 29.59 232.28 21.96 227.73 19.78"
/>
<path stroke="#90c2ec" vector-effect="non-scaling-stroke" d="
  M 227.73 19.78
  C 215.42 10.68 202.10 9.50 187.36 10.90
  C 175.06 12.06 165.80 12.16 154.74 11.72"
/>
<path stroke="#b9bec0" vector-effect="non-scaling-stroke" d="
  M 154.74 11.72
  L 147.73 10.24"
/>
<path stroke="#90c2ec" vector-effect="non-scaling-stroke" d="
  M 147.73 10.24
  C 137.63 7.42 127.30 8.08 116.75 9.46
  Q 103.24 11.21 87.75 11.71
  Q 85.52 11.78 83.39 11.26
  C 79.09 10.23 75.54 10.16 71.71 7.59
  A 0.74 0.73 -70.2 0 0 70.57 8.13
  L 70.37 10.11
  Q 70.31 10.76 69.66 10.75
  C 53.07 10.49 39.21 1.58 24.78 12.20"
/>
<path stroke="#4980ac" vector-effect="non-scaling-stroke" d="
  M 147.73 10.24
  Q 151.31 12.18 154.74 11.72"
/>
<path stroke="#7497b5" vector-effect="non-scaling-stroke" d="
  M 227.73 19.78
  L 237.54 34.04"
/>
<path stroke="#4980ac" vector-effect="non-scaling-stroke" d="
  M 240.82 194.51
  Q 239.54 196.95 240.71 199.50"
/>
<path stroke="#7497b5" vector-effect="non-scaling-stroke" d="
  M 17.10 33.21
  Q 15.91 35.98 16.90 39.22"
/>
<path stroke="#4980ac" vector-effect="non-scaling-stroke" d="
  M 29.94 93.45
  Q 28.21 95.16 28.58 97.79"
/>
<path stroke="#4980ac" vector-effect="non-scaling-stroke" d="
  M 194.69 202.06
  Q 195.36 203.49 197.02 204.10"
/>
<path stroke="#7497b5" vector-effect="non-scaling-stroke" d="
  M 222.77 212.73
  L 220.21 211.74"
/>
<path stroke="#4980ac" vector-effect="non-scaling-stroke" d="
  M 199.25 209.50
  Q 194.79 209.20 190.50 210.77"
/>
<path stroke="#4980ac" vector-effect="non-scaling-stroke" d="
  M 184.78 212.07
  Q 182.40 211.79 180.76 213.17"
/>
<path stroke="#4980ac" vector-effect="non-scaling-stroke" d="
  M 107.78 213.17
  C 103.55 211.65 97.78 212.18 93.47 213.05"
/>
<path stroke="#4980ac" vector-effect="non-scaling-stroke" d="
  M 81.25 215.29
  Q 78.82 214.91 76.95 216.39"
/>
<path stroke="#7497b5" vector-effect="non-scaling-stroke" d="
  M 29.29 213.82
  L 20.91 209.62"
/>
<path stroke="#4980ac" vector-effect="non-scaling-stroke" d="
  M 9.46 186.55
  Q 10.58 183.28 9.54 180.72"
/>
<path stroke="#4980ac" vector-effect="non-scaling-stroke" d="
  M 14.01 159.91
  Q 16.48 155.09 13.62 153.60"
/>
<path stroke="#4980ac" vector-effect="non-scaling-stroke" d="
  M 20.74 73.22
  Q 19.77 63.13 15.99 52.94"
/>
<path stroke="#7497b5" vector-effect="non-scaling-stroke" d="
  M 15.99 52.94
  C 14.72 47.82 12.80 42.20 12.96 37.21
  Q 13.32 26.21 20.53 17.47
  Q 22.61 14.95 24.78 12.20"
/>
<path stroke="#9d9389" vector-effect="non-scaling-stroke" d="
  M 15.99 52.94
  Q 15.66 53.19 15.71 53.75"
/>
<path stroke="#b9bec0" vector-effect="non-scaling-stroke" d="
  M 25.54 28.55
  L 27.65 23.19"
/>
<path stroke="#e3d5c8" vector-effect="non-scaling-stroke" d="
  M 27.65 23.19
  L 33.86 17.11"
/>
<path stroke="#90c2ec" vector-effect="non-scaling-stroke" d="
  M 33.86 17.11
  Q 39.40 14.18 45.41 15.99
  A 0.50 0.50 0.0 0 0 45.84 15.10
  C 42.35 12.69 38.48 12.51 34.42 13.96
  Q 22.99 18.03 22.32 31.15
  Q 22.29 31.75 22.85 32.01
  L 24.02 32.55
  Q 24.73 32.87 24.87 32.11
  L 25.54 28.55"
/>
<path stroke="#7497b5" vector-effect="non-scaling-stroke" d="
  M 33.86 17.11
  Q 29.95 18.42 27.70 22.54"
/>
<path stroke="#4980ac" vector-effect="non-scaling-stroke" d="
  M 27.70 22.54
  Q 25.75 25.28 25.54 28.55"
/>
<path stroke="#9d9389" vector-effect="non-scaling-stroke" d="
  M 27.65 23.19
  Q 27.87 22.94 27.70 22.54"
/>
<path stroke="#90c2ec" vector-effect="non-scaling-stroke" d="
  M 153.76 19.34
  C 145.64 16.33 136.41 14.37 127.79 15.98
  C 124.97 16.51 122.31 16.55 119.53 17.08
  Q 118.15 17.34 118.27 18.35
  A 1.02 1.01 88.0 0 0 119.23 19.25
  Q 124.57 19.46 129.75 18.26
  C 137.78 16.40 146.29 18.94 155.35 22.55
  C 161.43 24.96 170.29 22.54 176.68 22.22
  A 0.80 0.80 0.0 0 0 177.42 21.25
  Q 176.83 18.60 173.75 19.28
  C 170.02 20.10 159.04 21.30 153.76 19.34"
/>
<path stroke="#90c2ec" vector-effect="non-scaling-stroke" d="
  M 233.07 62.12
  Q 234.37 62.42 234.96 61.58
  Q 235.34 61.03 235.23 59.86
  C 234.56 52.68 234.62 43.19 231.70 36.71
  C 229.66 32.17 226.41 25.14 220.68 25.30
  A 0.44 0.43 62.9 0 0 220.43 26.08
  C 232.62 35.26 229.51 47.24 231.58 60.52
  Q 231.78 61.83 233.07 62.12"
/>
<path stroke="#999b9c" vector-effect="non-scaling-stroke" d="
  M 205.36 122.52
  Q 205.38 115.50 202.37 109.15
  A 0.71 0.71 0.0 0 1 202.72 108.20
  L 208.66 105.55
  A 1.06 1.06 0.0 0 0 208.94 103.79
  L 201.47 97.10
  A 0.79 0.79 0.0 0 0 200.16 97.55
  L 199.13 103.32
  A 0.58 0.58 0.0 0 1 198.30 103.73
  Q 192.36 100.72 186.23 99.85
  Q 185.02 99.68 183.74 97.62
  Q 183.42 97.10 184.01 96.93
  L 189.45 95.31
  A 1.16 1.16 0.0 0 0 190.06 93.52
  L 184.87 86.38
  A 0.65 0.65 0.0 0 0 183.73 86.54
  Q 182.59 89.64 180.35 92.03
  Q 179.91 92.49 179.82 91.86
  C 178.76 84.60 180.11 80.19 174.04 75.28
  A 0.88 0.88 0.0 0 1 174.16 73.83
  L 178.49 71.43
  A 1.75 1.75 0.0 0 0 178.81 68.60
  Q 176.66 66.67 174.60 64.93
  C 173.42 63.93 172.53 61.88 170.62 61.66
  Q 169.61 61.55 169.52 62.56
  L 168.80 70.51
  A 0.91 0.90 -77.1 0 1 167.58 71.28
  C 163.47 69.74 159.35 67.68 154.83 68.05
  Q 154.33 68.09 153.90 67.83
  C 148.90 64.77 143.19 63.13 138.52 59.92
  Q 115.40 44.00 90.87 29.48
  Q 89.87 28.89 89.00 29.65
  C 84.51 33.50 80.14 37.23 75.06 40.36
  Q 57.14 51.38 38.05 60.27
  Q 37.57 60.49 37.51 61.02
  C 37.29 62.94 38.07 64.09 39.94 64.83
  C 45.36 66.99 50.82 68.93 55.70 72.02
  Q 61.32 75.57 66.71 79.48
  C 74.75 85.31 82.16 93.18 89.98 100.17
  A 1.35 1.35 0.0 0 0 91.64 100.27
  C 108.14 88.77 126.17 81.64 145.78 74.31
  Q 149.02 73.09 151.50 73.20
  A 1.04 1.01 21.6 0 0 152.31 72.86
  C 156.08 68.62 162.00 72.98 165.74 74.83
  A 1.01 1.01 0.0 0 1 165.81 76.61
  Q 161.48 79.15 157.96 82.81
  A 1.46 1.46 0.0 0 0 158.57 85.22
  Q 162.71 86.51 166.07 89.26
  A 1.62 1.62 0.0 0 0 168.71 88.17
  L 169.64 79.15
  A 1.48 1.48 0.0 0 1 172.24 78.34
  C 176.53 83.38 175.71 89.15 175.99 95.19
  Q 176.01 95.64 175.56 95.67
  L 171.33 95.97
  A 0.71 0.70 -12.8 0 0 170.72 96.93
  L 174.61 106.99
  A 0.62 0.62 0.0 0 0 175.74 107.03
  L 178.32 101.60
  A 1.65 1.63 -64.1 0 1 180.52 100.83
  C 185.11 103.07 189.97 103.45 194.50 105.60
  A 1.30 1.30 0.0 0 1 194.47 107.97
  Q 191.70 109.18 188.72 109.27
  A 1.17 1.17 0.0 0 0 187.94 111.29
  L 195.07 118.10
  A 1.72 1.71 -56.4 0 0 197.83 117.54
  L 199.44 113.78
  Q 199.64 113.33 199.89 113.76
  C 201.67 116.78 201.16 122.62 200.88 126.62
  Q 200.84 127.21 200.26 127.21
  L 194.66 127.27
  Q 192.46 127.29 193.01 129.42
  Q 194.14 133.81 196.20 137.90
  A 1.70 1.70 0.0 0 0 199.06 138.17
  L 201.65 134.81
  A 1.65 1.64 -54.8 0 1 203.83 134.43
  C 208.91 137.66 214.19 134.49 218.29 138.98
  A 0.79 0.79 0.0 0 1 218.02 140.24
  L 209.89 143.80
  A 1.28 1.28 0.0 0 0 209.37 145.73
  Q 211.82 149.08 215.28 151.72
  C 218.50 154.16 220.17 148.07 220.77 145.99
  A 0.41 0.41 0.0 0 1 221.57 146.11
  Q 221.36 153.38 219.80 160.57
  C 217.69 170.31 218.54 178.13 227.67 183.88
  Q 228.39 184.34 228.95 184.34
  Q 230.03 184.36 230.19 183.20
  A 1.16 1.16 0.0 0 0 229.67 182.07
  C 222.72 177.56 220.91 171.01 222.59 163.06
  C 223.68 157.95 226.74 147.31 224.66 142.59
  A 1.38 1.37 65.9 0 1 225.34 140.79
  L 230.06 138.62
  A 0.70 0.70 0.0 0 0 230.28 137.51
  L 228.03 135.05
  A 0.46 0.34 18.4 0 1 227.94 134.92
  Q 226.56 131.83 224.23 129.36
  A 0.52 0.52 0.0 0 0 223.35 129.59
  L 222.06 134.53
  A 1.50 1.50 0.0 0 1 219.70 135.35
  Q 215.42 132.15 209.68 132.73
  C 208.06 132.90 206.84 132.69 206.67 130.88
  A 0.59 0.58 -2.7 0 1 207.25 130.25
  L 213.91 130.24
  A 1.31 1.31 0.0 0 0 215.10 128.38
  L 211.69 121.02
  A 1.93 1.93 0.0 0 0 208.57 120.46
  L 206.17 122.86
  Q 205.35 123.68 205.36 122.52"
/>
<path stroke="#90c2ec" vector-effect="non-scaling-stroke" d="
  M 157.98 110.27
  A 0.54 0.54 0.0 0 0 158.74 109.73
  Q 158.31 104.77 161.86 101.32
  A 0.83 0.83 0.0 0 0 161.53 99.93
  Q 161.28 99.85 160.73 100.22
  C 158.54 101.68 153.83 108.39 157.98 110.27"
/>
<path stroke="#8cd4ec" vector-effect="non-scaling-stroke" d="
  M 66.93 121.75
  L 64.27 116.29
  A 0.70 0.69 -62.7 0 0 62.96 116.71
  L 63.83 121.90
  Q 63.93 122.49 63.35 122.64
  L 59.77 123.55"
/>
<path stroke="#b9bec0" vector-effect="non-scaling-stroke" d="
  M 59.77 123.55
  L 51.01 124.96
  Q 50.45 125.05 49.88 125.03
  L 48.30 124.99
  Q 47.80 124.98 47.62 125.44
  Q 47.15 126.58 47.26 127.10"
/>
<path stroke="#8cd4ec" vector-effect="non-scaling-stroke" d="
  M 47.26 127.10
  L 47.54 128.06
  Q 47.69 128.58 48.23 128.56
  Q 54.06 128.39 59.69 126.96
  Q 62.13 126.34 64.71 126.54
  Q 65.28 126.58 65.38 127.14
  C 66.38 132.82 68.17 138.17 67.91 144.00
  C 67.48 153.83 56.09 157.04 50.31 149.20
  A 1.46 1.41 27.9 0 1 50.02 148.31
  C 50.03 146.22 50.69 142.44 47.97 141.66
  Q 47.35 141.49 47.12 142.08
  C 45.03 147.55 49.64 151.98 53.86 154.40
  C 62.85 159.55 72.65 152.78 71.02 142.70
  Q 69.86 135.50 67.57 127.70
  A 2.44 2.44 0.0 0 1 68.83 124.82
  L 75.04 121.75"
/>
<path stroke="#b9bec0" vector-effect="non-scaling-stroke" d="
  M 75.04 121.75
  C 76.95 121.06 83.57 117.76 80.89 114.82
  Q 80.59 114.48 80.20 114.73
  Q 74.39 118.61 66.93 121.75"
/>
<path stroke="#4593ad" vector-effect="non-scaling-stroke" d="
  M 75.04 121.75
  L 80.46 117.33
  Q 81.19 116.73 80.33 116.34
  L 80.02 116.20
  Q 79.53 115.99 79.10 116.31
  Q 73.55 120.59 66.93 121.75"
/>
<path stroke="#4593ad" vector-effect="non-scaling-stroke" d="
  M 47.26 127.10
  Q 49.05 126.01 51.48 125.35
  C 53.99 124.68 56.96 125.62 59.77 123.55"
/>
<path stroke="#8cd4ec" vector-effect="non-scaling-stroke" d="
  M 107.88 121.77
  L 106.83 131.71
  Q 106.78 132.18 106.57 132.60
  L 105.51 134.72
  A 0.52 0.52 0.0 0 0 105.79 135.43
  C 107.16 135.96 108.24 136.50 108.91 137.93
  Q 114.44 149.69 126.24 145.95"
/>
<path stroke="#b9bec0" vector-effect="non-scaling-stroke" d="
  M 126.24 145.95
  C 128.76 144.76 133.66 139.32 129.64 137.15
  A 0.66 0.66 0.0 0 0 128.76 137.39
  L 127.29 139.81"
/>
<path stroke="#8cd4ec" vector-effect="non-scaling-stroke" d="
  M 127.29 139.81
  Q 121.92 146.14 114.18 141.78
  Q 110.54 139.72 110.52 135.39
  Q 110.52 134.87 110.95 134.57
  L 112.82 133.26"
/>
<path stroke="#b9bec0" vector-effect="non-scaling-stroke" d="
  M 112.82 133.26
  L 117.32 131.85"
/>
<path stroke="#8cd4ec" vector-effect="non-scaling-stroke" d="
  M 117.32 131.85
  L 127.22 129.11
  Q 127.73 128.97 127.59 128.46
  Q 125.99 122.48 122.45 117.73"
/>
<path stroke="#e3d5c8" vector-effect="non-scaling-stroke" d="
  M 122.45 117.73
  Q 112.05 109.52 107.88 121.77"
/>
<path stroke="#70aab5" vector-effect="non-scaling-stroke" d="
  M 122.45 117.73
  Q 112.59 112.11 107.88 121.77"
/>
<path stroke="#4593ad" vector-effect="non-scaling-stroke" d="
  M 117.32 131.85
  Q 113.84 131.69 112.82 133.26"
/>
<path stroke="#4593ad" vector-effect="non-scaling-stroke" d="
  M 127.29 139.81
  Q 128.29 139.74 128.62 138.94
  A 1.02 1.01 -29.2 0 1 130.56 139.49
  Q 130.06 142.54 126.24 145.95"
/>
<path stroke="#b9bec0" vector-effect="non-scaling-stroke" d="
  M 163.75 131.95
  L 171.06 133.66"
/>
<path stroke="#8cd4ec" vector-effect="non-scaling-stroke" d="
  M 171.06 133.66
  C 178.56 135.65 175.90 144.05 170.02 146.51"
/>
<path stroke="#b9bec0" vector-effect="non-scaling-stroke" d="
  M 170.02 146.51
  L 162.80 147.69"
/>
<path stroke="#8cd4ec" vector-effect="non-scaling-stroke" d="
  M 162.80 147.69
  Q 157.98 144.83 155.68 139.40
  Q 155.46 138.90 155.16 138.77
  Q 154.77 138.61 154.26 138.78
  A 0.59 0.59 0.0 0 0 153.88 139.51
  Q 155.35 144.19 158.79 147.77"
/>
<path stroke="#b9bec0" vector-effect="non-scaling-stroke" d="
  M 158.79 147.77
  C 161.25 152.54 166.57 152.00 170.89 150.22"
/>
<path stroke="#8cd4ec" vector-effect="non-scaling-stroke" d="
  M 170.89 150.22
  C 180.13 146.94 179.40 136.87 172.96 130.92"
/>
<path stroke="#b9bec0" vector-effect="non-scaling-stroke" d="
  M 172.96 130.92
  L 168.70 128.86"
/>
<path stroke="#8cd4ec" vector-effect="non-scaling-stroke" d="
  M 168.70 128.86
  Q 164.81 129.05 161.93 126.67
  Q 161.54 126.35 161.52 125.85
  C 161.31 120.90 170.38 118.68 174.36 118.28
  Q 174.91 118.23 175.15 118.73
  L 175.94 120.42
  Q 176.14 120.85 176.59 120.70
  Q 176.85 120.61 177.02 120.42
  C 178.08 119.23 176.17 116.28 175.25 115.47
  Q 174.88 115.14 174.39 115.11
  Q 168.22 114.68 163.44 117.84
  C 157.73 121.60 158.47 128.06 163.75 131.95"
/>
<path stroke="#4593ad" vector-effect="non-scaling-stroke" d="
  M 168.70 128.86
  Q 170.63 131.52 172.96 130.92"
/>
<path stroke="#4593ad" vector-effect="non-scaling-stroke" d="
  M 170.89 150.22
  Q 163.54 152.24 158.79 147.77"
/>
<path stroke="#4593ad" vector-effect="non-scaling-stroke" d="
  M 162.80 147.69
  Q 166.94 149.36 170.02 146.51"
/>
<path stroke="#4593ad" vector-effect="non-scaling-stroke" d="
  M 171.06 133.66
  Q 167.81 131.65 163.75 131.95"
/>
<path stroke="#e3d5c8" vector-effect="non-scaling-stroke" d="
  M 142.07 137.49
  C 140.02 140.60 136.00 146.91 135.46 151.28"
/>
<path stroke="#8cd4ec" vector-effect="non-scaling-stroke" d="
  M 135.46 151.28
  C 135.03 152.76 134.82 155.94 137.16 155.74
  Q 137.89 155.67 138.26 155.09
  Q 138.78 154.27 138.14 153.59"
/>
<path stroke="#e3d5c8" vector-effect="non-scaling-stroke" d="
  M 138.14 153.59
  Q 142.39 146.46 145.38 138.63"
/>
<path stroke="#8cd4ec" vector-effect="non-scaling-stroke" d="
  M 145.38 138.63
  Q 146.71 138.33 147.51 138.81
  Q 147.85 139.02 148.03 139.01
  Q 148.33 139.00 148.52 138.78
  A 0.57 0.56 43.9 0 0 148.50 138.01
  C 147.33 136.80 146.88 135.85 147.84 134.24
  Q 151.82 127.54 154.99 120.43
  C 155.70 118.83 155.72 117.60 154.81 116.18
  A 0.71 0.71 0.0 0 0 153.56 116.28
  Q 150.13 124.38 144.98 131.48
  A 1.00 1.00 0.0 0 1 143.32 131.42
  L 134.00 116.57
  A 0.83 0.79 -61.2 0 0 132.52 117.04
  Q 132.51 117.39 132.98 118.08
  Q 138.26 125.90 142.68 134.26
  Q 142.91 134.69 142.69 135.12
  Q 142.11 136.31 142.07 137.49"
/>
<path stroke="#70aab5" vector-effect="non-scaling-stroke" d="
  M 145.38 138.63
  Q 140.30 146.01 138.14 153.59"
/>
<path stroke="#70aab5" vector-effect="non-scaling-stroke" d="
  M 135.46 151.28
  L 142.07 137.49"
/>
<path stroke="#8cd4ec" vector-effect="non-scaling-stroke" d="
  M 83.54 128.00
  L 83.46 129.50"
/>
<path stroke="#b9bec0" vector-effect="non-scaling-stroke" d="
  M 83.46 129.50
  Q 78.74 132.02 77.00 136.64"
/>
<path stroke="#8cd4ec" vector-effect="non-scaling-stroke" d="
  M 77.00 136.64
  C 73.48 147.96 82.74 154.97 92.69 151.07"
/>
<path stroke="#b9bec0" vector-effect="non-scaling-stroke" d="
  M 92.69 151.07
  Q 98.55 149.19 100.31 143.45"
/>
<path stroke="#8cd4ec" vector-effect="non-scaling-stroke" d="
  M 100.31 143.45
  Q 101.92 133.00 93.05 127.84"
/>
<path stroke="#b9bec0" vector-effect="non-scaling-stroke" d="
  M 93.05 127.84
  Q 89.09 124.42 83.64 125.75
  Q 83.13 125.87 83.11 126.40
  Q 83.09 127.22 83.54 128.00"
/>
<path stroke="#4593ad" vector-effect="non-scaling-stroke" d="
  M 93.05 127.84
  Q 88.59 125.82 84.61 126.30
  A 0.85 0.82 -83.7 0 0 83.92 126.87
  L 83.54 128.00"
/>
<path stroke="#4593ad" vector-effect="non-scaling-stroke" d="
  M 100.31 143.45
  Q 97.28 148.04 92.69 151.07"
/>
<path stroke="#4593ad" vector-effect="non-scaling-stroke" d="
  M 77.00 136.64
  L 83.46 129.50"
/>
<path stroke="#b9bec0" vector-effect="non-scaling-stroke" d="
  M 236.47 169.93
  L 237.98 170.08
  A 0.27 0.27 0.0 0 0 238.28 169.83
  L 240.18 150.41
  A 0.78 0.21 5.6 0 0 239.42 150.12
  L 238.93 150.07
  A 0.78 0.21 5.6 0 0 238.13 150.21
  L 236.23 169.63
  A 0.27 0.27 0.0 0 0 236.47 169.93"
/>
<path stroke="#909091" vector-effect="non-scaling-stroke" d="
  M 132.95 173.62
  Q 132.27 172.92 133.05 172.33
  C 138.05 168.55 136.45 160.75 130.17 159.58
  C 125.02 158.62 118.56 159.36 113.25 159.57
  Q 112.87 159.58 112.87 159.97
  L 113.06 187.58
  A 1.16 1.15 -89.7 0 0 114.19 188.73
  C 118.42 188.79 130.93 189.59 133.95 186.71
  Q 140.04 180.89 132.95 173.62"
/>
<path stroke="#909091" vector-effect="non-scaling-stroke" d="
  M 44.50 168.74
  A 0.49 0.49 0.0 0 1 44.99 168.25
  L 50.01 168.25
  A 0.49 0.49 0.0 0 0 50.50 167.76
  L 50.50 160.11
  A 0.49 0.49 0.0 0 0 50.00 159.63
  L 31.78 160.17
  A 0.49 0.49 0.0 0 0 31.32 160.54
  L 29.50 167.62
  A 0.49 0.49 0.0 0 0 30.04 168.22
  L 35.20 167.53
  A 0.49 0.49 0.0 0 1 35.75 168.02
  L 35.75 188.98
  A 0.49 0.49 0.0 0 0 36.28 189.47
  L 44.05 188.91
  A 0.49 0.49 0.0 0 0 44.50 188.42
  L 44.50 168.74"
/>
<path stroke="#909091" vector-effect="non-scaling-stroke" d="
  M 176.57 172.61
  A 0.31 0.31 0.0 0 1 176.00 172.60
  L 173.50 165.81
  A 0.31 0.31 0.0 0 0 173.15 165.62
  L 166.28 167.11
  A 0.31 0.31 0.0 0 0 166.06 167.55
  L 170.63 176.91
  A 0.31 0.31 0.0 0 1 170.63 177.17
  L 166.21 186.97
  A 0.31 0.31 0.0 0 0 166.43 187.40
  L 173.44 188.85
  A 0.31 0.31 0.0 0 0 173.80 188.64
  L 176.18 180.90
  A 0.31 0.31 0.0 0 1 176.77 180.90
  L 179.25 188.57
  A 0.31 0.31 0.0 0 0 179.61 188.77
  L 186.63 187.32
  A 0.31 0.31 0.0 0 0 186.84 186.88
  L 182.25 177.09
  A 0.31 0.31 0.0 0 1 182.25 176.83
  L 186.70 167.49
  A 0.31 0.31 0.0 0 0 186.49 167.06
  L 179.79 165.56
  A 0.31 0.31 0.0 0 0 179.44 165.74
  L 176.57 172.61"
/>
<path stroke="#909091" vector-effect="non-scaling-stroke" d="
  M 163.38 177.55
  A 11.54 11.54 0.0 0 0 151.84 166.01
  A 11.54 11.54 0.0 0 0 140.30 177.55
  A 11.54 11.54 0.0 0 0 151.84 189.09
  A 11.54 11.54 0.0 0 0 163.38 177.55"
/>
<path stroke="#909091" vector-effect="non-scaling-stroke" d="
  M 88.96 178.78
  A 0.45 0.45 0.0 0 1 88.08 178.79
  L 85.38 166.91
  A 0.45 0.45 0.0 0 0 84.86 166.57
  L 78.36 167.73
  A 0.45 0.45 0.0 0 0 78.02 168.34
  L 85.13 186.70
  A 0.45 0.45 0.0 0 1 85.14 187.01
  L 82.27 195.38
  A 0.45 0.45 0.0 0 0 82.65 195.98
  L 89.52 196.66
  A 0.45 0.45 0.0 0 0 90.00 196.35
  L 98.58 168.10
  A 0.45 0.45 0.0 0 0 98.21 167.52
  L 91.80 166.57
  A 0.45 0.45 0.0 0 0 91.30 166.93
  L 88.96 178.78"
/>
<path stroke="#909091" vector-effect="non-scaling-stroke" d="
  M 76.22 178.25
  A 11.57 11.57 0.0 0 0 64.65 166.68
  A 11.57 11.57 0.0 0 0 53.08 178.25
  A 11.57 11.57 0.0 0 0 64.65 189.82
  A 11.57 11.57 0.0 0 0 76.22 178.25"
/>
<path stroke="#7497b5" vector-effect="non-scaling-stroke" d="
  M 177.56 209.65
  L 193.74 205.01
  A 0.10 0.10 0.0 0 0 193.81 204.88
  L 193.80 204.85
  A 8.32 2.05 -16.0 0 0 185.24 205.18
  L 184.86 205.29
  A 8.32 2.05 -16.0 0 0 177.42 209.55
  L 177.43 209.58
  A 0.10 0.10 0.0 0 0 177.56 209.65"
/>
<path stroke="#2b7a49" vector-effect="non-scaling-stroke" d="
  M 148.64 67.88
  C 145.54 67.94 140.28 65.43 138.25 64.00
  Q 116.11 48.44 92.86 33.80
  A 0.75 0.75 0.0 0 0 91.71 34.34
  Q 90.66 42.33 89.95 50.77
  Q 89.66 54.18 92.40 64.43
  Q 92.52 64.88 92.98 64.78
  C 97.35 63.90 101.39 62.54 105.70 62.47
  Q 127.82 62.10 149.09 69.37
  A 0.68 0.68 0.0 0 0 149.76 68.21
  Q 149.37 67.87 148.64 67.88"
/>
<path stroke="#958e25" vector-effect="non-scaling-stroke" d="
  M 86.93 36.20
  C 84.16 38.73 81.64 40.89 78.54 42.71
  Q 64.22 51.09 48.46 59.41
  Q 47.73 59.79 48.55 59.76
  C 57.34 59.36 66.35 59.03 75.10 60.40
  Q 81.17 61.35 87.24 62.63
  Q 87.79 62.75 87.62 62.21
  C 85.12 54.00 86.12 44.74 87.49 36.51
  Q 87.65 35.55 86.93 36.20"
/>
<path stroke="#295e89" vector-effect="non-scaling-stroke" d="
  M 87.19 66.95
  Q 67.54 61.95 47.25 63.48
  A 0.29 0.29 0.0 0 0 47.18 64.05
  C 52.13 65.65 55.20 67.80 60.49 71.28
  Q 74.21 80.33 85.82 92.03
  A 0.33 0.33 0.0 0 0 86.37 91.74
  Q 84.18 79.70 87.77 68.00
  A 0.83 0.83 0.0 0 0 87.19 66.95"
/>
<path stroke="#853843" vector-effect="non-scaling-stroke" d="
  M 141.72 71.13
  C 126.69 66.98 110.68 64.86 95.32 67.28
  Q 91.18 67.93 90.68 72.68
  Q 89.54 83.51 91.21 94.28
  Q 91.55 96.45 93.38 95.24
  C 108.31 85.39 125.29 78.81 141.76 71.72
  Q 142.58 71.37 141.72 71.13"
/>
<path stroke="#999b9c" vector-effect="non-scaling-stroke" d="
  M 172.67 66.77
  A 0.63 0.63 0.0 0 0 171.62 67.15
  L 171.13 70.92
  A 0.63 0.63 0.0 0 0 172.06 71.56
  L 174.94 70.01
  A 0.63 0.63 0.0 0 0 175.07 68.99
  L 172.67 66.77"
/>
<path stroke="#999b9c" vector-effect="non-scaling-stroke" d="
  M 162.10 82.62
  A 0.50 0.50 0.0 0 0 162.11 83.45
  L 165.37 85.52
  A 0.50 0.50 0.0 0 0 166.13 85.18
  L 166.94 80.32
  A 0.50 0.50 0.0 0 0 166.16 79.82
  L 162.10 82.62"
/>
<path stroke="#999b9c" vector-effect="non-scaling-stroke" d="
  M 184.60 91.01
  L 183.18 92.82
  A 0.25 0.25 0.0 0 0 183.23 93.17
  L 183.54 93.42
  A 1.45 1.26 38.0 0 0 185.46 93.32
  L 185.63 93.10
  A 1.45 1.26 38.0 0 0 185.27 91.21
  L 184.95 90.96
  A 0.25 0.25 0.0 0 0 184.60 91.01"
/>
<path stroke="#999b9c" vector-effect="non-scaling-stroke" d="
  M 175.94 101.33
  L 177.04 98.95
  A 0.24 0.24 0.0 0 0 176.92 98.63
  L 176.79 98.57
  A 1.82 1.47 24.7 0 0 174.52 99.15
  L 174.46 99.29
  A 1.82 1.47 24.7 0 0 175.50 101.39
  L 175.62 101.45
  A 0.24 0.24 0.0 0 0 175.94 101.33"
/>
<path stroke="#999b9c" vector-effect="non-scaling-stroke" d="
  M 204.15 103.32
  L 202.86 102.19
  A 0.29 0.29 0.0 0 0 202.45 102.22
  L 202.19 102.51
  A 2.44 1.14 -48.8 0 0 201.44 105.10
  L 201.46 105.11
  A 2.44 1.14 -48.8 0 0 203.92 104.03
  L 204.18 103.73
  A 0.29 0.29 0.0 0 0 204.15 103.32"
/>
<path stroke="#999b9c" vector-effect="non-scaling-stroke" d="
  M 196.71 111.59
  A 0.59 0.59 0.0 0 0 196.00 110.87
  L 193.57 111.47
  A 0.59 0.59 0.0 0 0 193.28 112.44
  L 195.05 114.42
  A 0.59 0.59 0.0 0 0 196.06 114.17
  L 196.71 111.59"
/>
<path stroke="#999b9c" vector-effect="non-scaling-stroke" d="
  M 207.75 126.76
  L 210.41 126.74
  A 0.27 0.27 0.0 0 0 210.68 126.47
  L 210.68 126.29
  A 1.91 1.53 89.5 0 0 209.13 124.39
  L 208.99 124.39
  A 1.91 1.53 89.5 0 0 207.48 126.31
  L 207.48 126.49
  A 0.27 0.27 0.0 0 0 207.75 126.76"
/>
<path stroke="#999b9c" vector-effect="non-scaling-stroke" d="
  M 198.87 134.60
  L 200.64 131.30
  A 0.14 0.14 0.0 0 0 200.58 131.11
  L 200.38 131.00
  A 3.11 1.96 28.1 0 0 196.71 131.27
  L 196.66 131.35
  A 3.11 1.96 28.1 0 0 198.48 134.55
  L 198.68 134.66
  A 0.14 0.14 0.0 0 0 198.87 134.60"
/>
<path stroke="#999b9c" vector-effect="non-scaling-stroke" d="
  M 225.70 136.75
  A 1.01 1.01 0.0 0 0 224.69 135.74
  A 1.01 1.01 0.0 0 0 223.68 136.75
  A 1.01 1.01 0.0 0 0 224.69 137.76
  A 1.01 1.01 0.0 0 0 225.70 136.75"
/>
<path stroke="#999b9c" vector-effect="non-scaling-stroke" d="
  M 213.36 145.35
  A 0.30 0.30 0.0 0 0 213.22 145.84
  L 215.92 148.89
  A 0.30 0.30 0.0 0 0 216.42 148.81
  L 218.31 144.42
  A 0.30 0.30 0.0 0 0 217.95 144.02
  L 213.36 145.35"
/>
<path stroke="#4593ad" vector-effect="non-scaling-stroke" d="
  M 115.41 128.99
  Q 118.52 129.90 120.42 127.43"
/>
<path stroke="#8cd4ec" vector-effect="non-scaling-stroke" d="
  M 120.42 127.43
  L 124.53 126.28
  A 0.57 0.57 0.0 0 0 124.92 125.56
  Q 122.66 118.55 115.66 119.34
  C 110.00 119.99 110.20 125.07 109.97 129.37
  A 1.11 1.11 0.0 0 0 111.48 130.47
  L 115.41 128.99"
/>
<path stroke="#b9bec0" vector-effect="non-scaling-stroke" d="
  M 120.42 127.43
  L 115.41 128.99"
/>
<path stroke="#4593ad" vector-effect="non-scaling-stroke" d="
  M 90.43 130.16
  Q 85.31 131.85 82.03 134.46"
/>
<path stroke="#8cd4ec" vector-effect="non-scaling-stroke" d="
  M 82.03 134.46
  C 78.76 137.81 75.25 146.81 82.35 148.37
  Q 87.17 149.44 91.91 147.58"
/>
<path stroke="#4593ad" vector-effect="non-scaling-stroke" d="
  M 91.91 147.58
  Q 95.81 146.55 96.80 142.42"
/>
<path stroke="#8cd4ec" vector-effect="non-scaling-stroke" d="
  M 96.80 142.42
  C 98.71 138.90 98.43 134.95 95.06 132.38
  Q 92.76 130.64 90.43 130.16"
/>
<path stroke="#b9bec0" vector-effect="non-scaling-stroke" d="
  M 96.80 142.42
  L 91.91 147.58"
/>
<path stroke="#b9bec0" vector-effect="non-scaling-stroke" d="
  M 82.03 134.46
  Q 86.78 133.10 90.43 130.16"
/>
<path stroke="#909091" vector-effect="non-scaling-stroke" d="
  M 122.25 166.20
  L 122.23 170.16
  A 1.03 1.03 0.0 0 0 123.25 171.19
  L 124.33 171.20
  A 2.89 2.74 0.3 0 0 127.24 168.47
  L 127.24 167.93
  A 2.89 2.74 0.3 0 0 124.37 165.18
  L 123.29 165.17
  A 1.03 1.03 0.0 0 0 122.25 166.20"
/>
<path stroke="#909091" vector-effect="non-scaling-stroke" d="
  M 122.26 176.67
  L 122.26 181.57
  A 0.90 0.90 0.0 0 0 123.16 182.47
  L 124.23 182.47
  A 3.03 2.56 0.0 0 0 127.26 179.91
  L 127.26 178.33
  A 3.03 2.56 0.0 0 0 124.23 175.77
  L 123.16 175.77
  A 0.90 0.90 0.0 0 0 122.26 176.67"
/>
<path stroke="#909091" vector-effect="non-scaling-stroke" d="
  M 152.2010 181.8589
  A 4.35 3.97 85.9 0 0 155.8498 177.2362
  A 4.35 3.97 85.9 0 0 151.5790 173.1811
  A 4.35 3.97 85.9 0 0 147.9302 177.8038
  A 4.35 3.97 85.9 0 0 152.2010 181.8589"
/>
<path stroke="#909091" vector-effect="non-scaling-stroke" d="
  M 64.7760 182.4589
  A 4.23 3.83 88.7 0 0 68.5090 178.1431
  A 4.23 3.83 88.7 0 0 64.5840 174.0011
  A 4.23 3.83 88.7 0 0 60.8510 178.3169
  A 4.23 3.83 88.7 0 0 64.7760 182.4589"
/>
</g>
<path fill="#ffffff" d="
  M 0.00 0.00
  L 259.00 0.00
  L 259.00 223.00
  L 0.00 223.00
  L 0.00 0.00
  Z
  M 24.78 12.20
  C 10.72 23.19 9.94 37.86 15.71 53.75
  L 20.74 73.22
  Q 21.85 84.42 21.39 92.93
  Q 20.88 102.46 17.74 137.50
  Q 17.23 143.25 13.62 153.60
  Q 14.57 156.43 14.01 159.91
  L 9.54 180.72
  L 9.46 186.55
  C 8.98 195.96 13.97 203.75 20.91 209.62
  Q 24.34 212.99 29.29 213.82
  C 33.66 214.99 37.89 216.67 42.37 217.08
  C 54.25 218.18 63.71 218.93 76.95 216.39
  L 81.25 215.29
  L 93.47 213.05
  L 107.78 213.17
  L 119.94 214.79
  A 0.83 0.83 0.0 0 1 120.65 215.48
  L 121.06 218.27
  A 0.88 0.88 0.0 0 0 122.28 218.94
  C 132.88 214.27 142.57 215.70 153.61 217.76
  C 161.71 219.27 173.06 215.90 180.76 213.17
  Q 182.99 213.07 184.78 212.07
  L 190.50 210.77
  Q 194.88 210.88 199.25 209.50
  Q 209.95 209.21 220.21 211.74
  Q 220.81 213.00 222.77 212.73
  C 225.12 213.64 234.87 216.91 235.92 213.08
  A 0.83 0.83 0.0 0 0 235.23 212.04
  Q 227.90 211.01 221.01 208.46
  Q 212.52 205.33 198.58 205.18
  Q 197.28 205.16 197.02 204.10
  Q 196.45 201.80 194.69 202.06
  Q 188.83 201.55 186.49 202.47
  C 177.43 206.01 169.43 209.59 159.04 209.76
  Q 158.67 209.77 158.51 209.92
  Q 158.15 210.27 158.85 210.93
  Q 159.21 211.26 159.69 211.22
  L 166.72 210.65
  Q 167.15 210.61 167.28 211.02
  Q 167.49 211.73 166.75 212.00
  C 163.49 213.16 159.01 212.70 156.08 212.78
  C 151.80 212.91 147.37 211.46 143.62 211.33
  Q 138.78 211.16 133.92 211.28
  Q 133.42 211.29 132.98 211.04
  C 131.02 209.90 127.03 210.68 124.61 210.24
  C 118.83 209.20 113.28 208.56 107.73 207.46
  A 0.49 0.48 -39.2 0 1 107.83 206.50
  Q 115.85 206.52 123.71 206.48
  C 124.40 206.48 125.00 206.05 125.19 205.44
  A 0.87 0.86 10.5 0 0 124.41 204.31
  C 109.85 203.65 97.71 206.19 83.47 209.67
  C 78.99 210.77 74.08 210.91 69.35 211.82
  C 55.53 214.49 31.20 213.12 21.08 204.45
  C 13.53 197.99 12.91 192.82 15.57 183.56
  C 17.21 177.83 22.61 170.35 20.54 164.19
  A 1.08 1.08 0.0 0 0 18.43 164.58
  Q 18.65 170.00 15.42 174.19
  A 0.28 0.28 0.0 0 1 14.92 173.99
  C 15.64 168.59 17.78 163.20 18.09 158.23
  C 18.34 154.27 17.78 151.16 19.03 147.26
  Q 21.76 138.74 22.48 129.84
  C 23.23 120.66 23.83 115.47 24.00 108.26
  A 0.83 0.83 0.0 0 1 25.06 107.48
  L 27.50 108.19
  A 0.84 0.84 0.0 0 0 28.58 107.39
  L 28.58 97.79
  L 29.94 93.45
  Q 31.77 82.85 28.07 73.41
  Q 27.68 72.41 26.58 72.82
  Q 26.12 72.99 26.25 73.46
  C 27.60 78.31 29.31 87.77 26.01 91.30
  Q 25.73 91.59 25.71 91.19
  C 25.31 84.43 25.54 77.60 24.30 71.10
  C 22.14 59.80 18.81 49.54 16.90 39.22
  Q 18.01 35.91 17.10 33.21
  C 19.24 22.37 27.60 11.28 39.12 9.66
  C 45.55 8.76 55.15 11.89 62.12 13.07
  C 65.52 13.65 69.16 13.41 72.74 13.68
  C 74.06 13.79 75.41 13.19 76.84 13.73
  C 90.05 18.71 107.14 13.97 120.87 13.39
  C 129.68 13.02 137.49 11.59 145.83 13.64
  Q 153.21 15.46 157.65 16.30
  C 172.85 19.17 188.00 13.74 202.74 14.90
  C 211.97 15.63 222.75 18.50 228.75 26.25
  C 241.17 42.26 238.61 57.60 238.18 76.26
  Q 238.10 80.06 240.36 83.11
  A 1.03 1.02 -54.5 0 1 240.51 84.03
  Q 237.88 92.12 237.81 100.58
  C 237.73 110.29 237.45 119.98 237.75 129.68
  C 238.06 139.30 241.52 148.27 241.25 157.85
  C 240.88 170.61 236.74 183.31 236.23 195.00
  C 236.06 198.97 237.08 206.55 241.61 208.45
  A 1.01 1.01 0.0 0 0 242.90 207.04
  Q 241.09 203.62 240.71 199.50
  L 240.82 194.51
  Q 241.82 186.38 243.68 178.33
  C 244.48 174.88 244.44 171.39 244.90 167.84
  C 246.28 157.19 245.06 150.83 242.75 139.54
  Q 241.68 134.35 241.66 129.33
  C 241.58 112.86 240.45 95.45 246.48 79.89
  A 1.99 1.99 0.0 0 0 244.32 77.20
  L 242.39 77.49
  Q 241.44 77.64 241.45 76.67
  C 241.62 61.66 243.23 47.67 237.54 34.04
  C 236.00 29.59 232.28 21.96 227.73 19.78
  C 215.42 10.68 202.10 9.50 187.36 10.90
  C 175.06 12.06 165.80 12.16 154.74 11.72
  L 147.73 10.24
  C 137.63 7.42 127.30 8.08 116.75 9.46
  Q 103.24 11.21 87.75 11.71
  Q 85.52 11.78 83.39 11.26
  C 79.09 10.23 75.54 10.16 71.71 7.59
  A 0.74 0.73 -70.2 0 0 70.57 8.13
  L 70.37 10.11
  Q 70.31 10.76 69.66 10.75
  C 53.07 10.49 39.21 1.58 24.78 12.20
  Z
  M 25.54 28.55
  L 27.65 23.19
  L 33.86 17.11
  Q 39.40 14.18 45.41 15.99
  A 0.50 0.50 0.0 0 0 45.84 15.10
  C 42.35 12.69 38.48 12.51 34.42 13.96
  Q 22.99 18.03 22.32 31.15
  Q 22.29 31.75 22.85 32.01
  L 24.02 32.55
  Q 24.73 32.87 24.87 32.11
  L 25.54 28.55
  Z
  M 153.76 19.34
  C 145.64 16.33 136.41 14.37 127.79 15.98
  C 124.97 16.51 122.31 16.55 119.53 17.08
  Q 118.15 17.34 118.27 18.35
  A 1.02 1.01 88.0 0 0 119.23 19.25
  Q 124.57 19.46 129.75 18.26
  C 137.78 16.40 146.29 18.94 155.35 22.55
  C 161.43 24.96 170.29 22.54 176.68 22.22
  A 0.80 0.80 0.0 0 0 177.42 21.25
  Q 176.83 18.60 173.75 19.28
  C 170.02 20.10 159.04 21.30 153.76 19.34
  Z
  M 233.07 62.12
  Q 234.37 62.42 234.96 61.58
  Q 235.34 61.03 235.23 59.86
  C 234.56 52.68 234.62 43.19 231.70 36.71
  C 229.66 32.17 226.41 25.14 220.68 25.30
  A 0.44 0.43 62.9 0 0 220.43 26.08
  C 232.62 35.26 229.51 47.24 231.58 60.52
  Q 231.78 61.83 233.07 62.12
  Z
  M 205.36 122.52
  Q 205.38 115.50 202.37 109.15
  A 0.71 0.71 0.0 0 1 202.72 108.20
  L 208.66 105.55
  A 1.06 1.06 0.0 0 0 208.94 103.79
  L 201.47 97.10
  A 0.79 0.79 0.0 0 0 200.16 97.55
  L 199.13 103.32
  A 0.58 0.58 0.0 0 1 198.30 103.73
  Q 192.36 100.72 186.23 99.85
  Q 185.02 99.68 183.74 97.62
  Q 183.42 97.10 184.01 96.93
  L 189.45 95.31
  A 1.16 1.16 0.0 0 0 190.06 93.52
  L 184.87 86.38
  A 0.65 0.65 0.0 0 0 183.73 86.54
  Q 182.59 89.64 180.35 92.03
  Q 179.91 92.49 179.82 91.86
  C 178.76 84.60 180.11 80.19 174.04 75.28
  A 0.88 0.88 0.0 0 1 174.16 73.83
  L 178.49 71.43
  A 1.75 1.75 0.0 0 0 178.81 68.60
  Q 176.66 66.67 174.60 64.93
  C 173.42 63.93 172.53 61.88 170.62 61.66
  Q 169.61 61.55 169.52 62.56
  L 168.80 70.51
  A 0.91 0.90 -77.1 0 1 167.58 71.28
  C 163.47 69.74 159.35 67.68 154.83 68.05
  Q 154.33 68.09 153.90 67.83
  C 148.90 64.77 143.19 63.13 138.52 59.92
  Q 115.40 44.00 90.87 29.48
  Q 89.87 28.89 89.00 29.65
  C 84.51 33.50 80.14 37.23 75.06 40.36
  Q 57.14 51.38 38.05 60.27
  Q 37.57 60.49 37.51 61.02
  C 37.29 62.94 38.07 64.09 39.94 64.83
  C 45.36 66.99 50.82 68.93 55.70 72.02
  Q 61.32 75.57 66.71 79.48
  C 74.75 85.31 82.16 93.18 89.98 100.17
  A 1.35 1.35 0.0 0 0 91.64 100.27
  C 108.14 88.77 126.17 81.64 145.78 74.31
  Q 149.02 73.09 151.50 73.20
  A 1.04 1.01 21.6 0 0 152.31 72.86
  C 156.08 68.62 162.00 72.98 165.74 74.83
  A 1.01 1.01 0.0 0 1 165.81 76.61
  Q 161.48 79.15 157.96 82.81
  A 1.46 1.46 0.0 0 0 158.57 85.22
  Q 162.71 86.51 166.07 89.26
  A 1.62 1.62 0.0 0 0 168.71 88.17
  L 169.64 79.15
  A 1.48 1.48 0.0 0 1 172.24 78.34
  C 176.53 83.38 175.71 89.15 175.99 95.19
  Q 176.01 95.64 175.56 95.67
  L 171.33 95.97
  A 0.71 0.70 -12.8 0 0 170.72 96.93
  L 174.61 106.99
  A 0.62 0.62 0.0 0 0 175.74 107.03
  L 178.32 101.60
  A 1.65 1.63 -64.1 0 1 180.52 100.83
  C 185.11 103.07 189.97 103.45 194.50 105.60
  A 1.30 1.30 0.0 0 1 194.47 107.97
  Q 191.70 109.18 188.72 109.27
  A 1.17 1.17 0.0 0 0 187.94 111.29
  L 195.07 118.10
  A 1.72 1.71 -56.4 0 0 197.83 117.54
  L 199.44 113.78
  Q 199.64 113.33 199.89 113.76
  C 201.67 116.78 201.16 122.62 200.88 126.62
  Q 200.84 127.21 200.26 127.21
  L 194.66 127.27
  Q 192.46 127.29 193.01 129.42
  Q 194.14 133.81 196.20 137.90
  A 1.70 1.70 0.0 0 0 199.06 138.17
  L 201.65 134.81
  A 1.65 1.64 -54.8 0 1 203.83 134.43
  C 208.91 137.66 214.19 134.49 218.29 138.98
  A 0.79 0.79 0.0 0 1 218.02 140.24
  L 209.89 143.80
  A 1.28 1.28 0.0 0 0 209.37 145.73
  Q 211.82 149.08 215.28 151.72
  C 218.50 154.16 220.17 148.07 220.77 145.99
  A 0.41 0.41 0.0 0 1 221.57 146.11
  Q 221.36 153.38 219.80 160.57
  C 217.69 170.31 218.54 178.13 227.67 183.88
  Q 228.39 184.34 228.95 184.34
  Q 230.03 184.36 230.19 183.20
  A 1.16 1.16 0.0 0 0 229.67 182.07
  C 222.72 177.56 220.91 171.01 222.59 163.06
  C 223.68 157.95 226.74 147.31 224.66 142.59
  A 1.38 1.37 65.9 0 1 225.34 140.79
  L 230.06 138.62
  A 0.70 0.70 0.0 0 0 230.28 137.51
  L 228.03 135.05
  A 0.46 0.34 18.4 0 1 227.94 134.92
  Q 226.56 131.83 224.23 129.36
  A 0.52 0.52 0.0 0 0 223.35 129.59
  L 222.06 134.53
  A 1.50 1.50 0.0 0 1 219.70 135.35
  Q 215.42 132.15 209.68 132.73
  C 208.06 132.90 206.84 132.69 206.67 130.88
  A 0.59 0.58 -2.7 0 1 207.25 130.25
  L 213.91 130.24
  A 1.31 1.31 0.0 0 0 215.10 128.38
  L 211.69 121.02
  A 1.93 1.93 0.0 0 0 208.57 120.46
  L 206.17 122.86
  Q 205.35 123.68 205.36 122.52
  Z
  M 157.98 110.27
  A 0.54 0.54 0.0 0 0 158.74 109.73
  Q 158.31 104.77 161.86 101.32
  A 0.83 0.83 0.0 0 0 161.53 99.93
  Q 161.28 99.85 160.73 100.22
  C 158.54 101.68 153.83 108.39 157.98 110.27
  Z
  M 66.93 121.75
  L 64.27 116.29
  A 0.70 0.69 -62.7 0 0 62.96 116.71
  L 63.83 121.90
  Q 63.93 122.49 63.35 122.64
  L 59.77 123.55
  L 51.01 124.96
  Q 50.45 125.05 49.88 125.03
  L 48.30 124.99
  Q 47.80 124.98 47.62 125.44
  Q 47.15 126.58 47.26 127.10
  L 47.54 128.06
  Q 47.69 128.58 48.23 128.56
  Q 54.06 128.39 59.69 126.96
  Q 62.13 126.34 64.71 126.54
  Q 65.28 126.58 65.38 127.14
  C 66.38 132.82 68.17 138.17 67.91 144.00
  C 67.48 153.83 56.09 157.04 50.31 149.20
  A 1.46 1.41 27.9 0 1 50.02 148.31
  C 50.03 146.22 50.69 142.44 47.97 141.66
  Q 47.35 141.49 47.12 142.08
  C 45.03 147.55 49.64 151.98 53.86 154.40
  C 62.85 159.55 72.65 152.78 71.02 142.70
  Q 69.86 135.50 67.57 127.70
  A 2.44 2.44 0.0 0 1 68.83 124.82
  L 75.04 121.75
  C 76.95 121.06 83.57 117.76 80.89 114.82
  Q 80.59 114.48 80.20 114.73
  Q 74.39 118.61 66.93 121.75
  Z
  M 107.88 121.77
  L 106.83 131.71
  Q 106.78 132.18 106.57 132.60
  L 105.51 134.72
  A 0.52 0.52 0.0 0 0 105.79 135.43
  C 107.16 135.96 108.24 136.50 108.91 137.93
  Q 114.44 149.69 126.24 145.95
  C 128.76 144.76 133.66 139.32 129.64 137.15
  A 0.66 0.66 0.0 0 0 128.76 137.39
  L 127.29 139.81
  Q 121.92 146.14 114.18 141.78
  Q 110.54 139.72 110.52 135.39
  Q 110.52 134.87 110.95 134.57
  L 112.82 133.26
  L 117.32 131.85
  L 127.22 129.11
  Q 127.73 128.97 127.59 128.46
  Q 125.99 122.48 122.45 117.73
  Q 112.05 109.52 107.88 121.77
  Z
  M 163.75 131.95
  L 171.06 133.66
  C 178.56 135.65 175.90 144.05 170.02 146.51
  L 162.80 147.69
  Q 157.98 144.83 155.68 139.40
  Q 155.46 138.90 155.16 138.77
  Q 154.77 138.61 154.26 138.78
  A 0.59 0.59 0.0 0 0 153.88 139.51
  Q 155.35 144.19 158.79 147.77
  C 161.25 152.54 166.57 152.00 170.89 150.22
  C 180.13 146.94 179.40 136.87 172.96 130.92
  L 168.70 128.86
  Q 164.81 129.05 161.93 126.67
  Q 161.54 126.35 161.52 125.85
  C 161.31 120.90 170.38 118.68 174.36 118.28
  Q 174.91 118.23 175.15 118.73
  L 175.94 120.42
  Q 176.14 120.85 176.59 120.70
  Q 176.85 120.61 177.02 120.42
  C 178.08 119.23 176.17 116.28 175.25 115.47
  Q 174.88 115.14 174.39 115.11
  Q 168.22 114.68 163.44 117.84
  C 157.73 121.60 158.47 128.06 163.75 131.95
  Z
  M 142.07 137.49
  C 140.02 140.60 136.00 146.91 135.46 151.28
  C 135.03 152.76 134.82 155.94 137.16 155.74
  Q 137.89 155.67 138.26 155.09
  Q 138.78 154.27 138.14 153.59
  Q 142.39 146.46 145.38 138.63
  Q 146.71 138.33 147.51 138.81
  Q 147.85 139.02 148.03 139.01
  Q 148.33 139.00 148.52 138.78
  A 0.57 0.56 43.9 0 0 148.50 138.01
  C 147.33 136.80 146.88 135.85 147.84 134.24
  Q 151.82 127.54 154.99 120.43
  C 155.70 118.83 155.72 117.60 154.81 116.18
  A 0.71 0.71 0.0 0 0 153.56 116.28
  Q 150.13 124.38 144.98 131.48
  A 1.00 1.00 0.0 0 1 143.32 131.42
  L 134.00 116.57
  A 0.83 0.79 -61.2 0 0 132.52 117.04
  Q 132.51 117.39 132.98 118.08
  Q 138.26 125.90 142.68 134.26
  Q 142.91 134.69 142.69 135.12
  Q 142.11 136.31 142.07 137.49
  Z
  M 83.54 128.00
  L 83.46 129.50
  Q 78.74 132.02 77.00 136.64
  C 73.48 147.96 82.74 154.97 92.69 151.07
  Q 98.55 149.19 100.31 143.45
  Q 101.92 133.00 93.05 127.84
  Q 89.09 124.42 83.64 125.75
  Q 83.13 125.87 83.11 126.40
  Q 83.09 127.22 83.54 128.00
  Z
  M 236.47 169.93
  L 237.98 170.08
  A 0.27 0.27 0.0 0 0 238.28 169.83
  L 240.18 150.41
  A 0.78 0.21 5.6 0 0 239.42 150.12
  L 238.93 150.07
  A 0.78 0.21 5.6 0 0 238.13 150.21
  L 236.23 169.63
  A 0.27 0.27 0.0 0 0 236.47 169.93
  Z
  M 132.95 173.62
  Q 132.27 172.92 133.05 172.33
  C 138.05 168.55 136.45 160.75 130.17 159.58
  C 125.02 158.62 118.56 159.36 113.25 159.57
  Q 112.87 159.58 112.87 159.97
  L 113.06 187.58
  A 1.16 1.15 -89.7 0 0 114.19 188.73
  C 118.42 188.79 130.93 189.59 133.95 186.71
  Q 140.04 180.89 132.95 173.62
  Z
  M 44.50 168.74
  A 0.49 0.49 0.0 0 1 44.99 168.25
  L 50.01 168.25
  A 0.49 0.49 0.0 0 0 50.50 167.76
  L 50.50 160.11
  A 0.49 0.49 0.0 0 0 50.00 159.63
  L 31.78 160.17
  A 0.49 0.49 0.0 0 0 31.32 160.54
  L 29.50 167.62
  A 0.49 0.49 0.0 0 0 30.04 168.22
  L 35.20 167.53
  A 0.49 0.49 0.0 0 1 35.75 168.02
  L 35.75 188.98
  A 0.49 0.49 0.0 0 0 36.28 189.47
  L 44.05 188.91
  A 0.49 0.49 0.0 0 0 44.50 188.42
  L 44.50 168.74
  Z
  M 176.57 172.61
  A 0.31 0.31 0.0 0 1 176.00 172.60
  L 173.50 165.81
  A 0.31 0.31 0.0 0 0 173.15 165.62
  L 166.28 167.11
  A 0.31 0.31 0.0 0 0 166.06 167.55
  L 170.63 176.91
  A 0.31 0.31 0.0 0 1 170.63 177.17
  L 166.21 186.97
  A 0.31 0.31 0.0 0 0 166.43 187.40
  L 173.44 188.85
  A 0.31 0.31 0.0 0 0 173.80 188.64
  L 176.18 180.90
  A 0.31 0.31 0.0 0 1 176.77 180.90
  L 179.25 188.57
  A 0.31 0.31 0.0 0 0 179.61 188.77
  L 186.63 187.32
  A 0.31 0.31 0.0 0 0 186.84 186.88
  L 182.25 177.09
  A 0.31 0.31 0.0 0 1 182.25 176.83
  L 186.70 167.49
  A 0.31 0.31 0.0 0 0 186.49 167.06
  L 179.79 165.56
  A 0.31 0.31 0.0 0 0 179.44 165.74
  L 176.57 172.61
  Z
  M 163.38 177.55
  A 11.54 11.54 0.0 0 0 151.84 166.01
  A 11.54 11.54 0.0 0 0 140.30 177.55
  A 11.54 11.54 0.0 0 0 151.84 189.09
  A 11.54 11.54 0.0 0 0 163.38 177.55
  Z
  M 88.96 178.78
  A 0.45 0.45 0.0 0 1 88.08 178.79
  L 85.38 166.91
  A 0.45 0.45 0.0 0 0 84.86 166.57
  L 78.36 167.73
  A 0.45 0.45 0.0 0 0 78.02 168.34
  L 85.13 186.70
  A 0.45 0.45 0.0 0 1 85.14 187.01
  L 82.27 195.38
  A 0.45 0.45 0.0 0 0 82.65 195.98
  L 89.52 196.66
  A 0.45 0.45 0.0 0 0 90.00 196.35
  L 98.58 168.10
  A 0.45 0.45 0.0 0 0 98.21 167.52
  L 91.80 166.57
  A 0.45 0.45 0.0 0 0 91.30 166.93
  L 88.96 178.78
  Z
  M 76.22 178.25
  A 11.57 11.57 0.0 0 0 64.65 166.68
  A 11.57 11.57 0.0 0 0 53.08 178.25
  A 11.57 11.57 0.0 0 0 64.65 189.82
  A 11.57 11.57 0.0 0 0 76.22 178.25
  Z"
/>
<path fill="#2084d8" d="
  M 147.73 10.24
  Q 151.31 12.18 154.74 11.72
  C 165.80 12.16 175.06 12.06 187.36 10.90
  C 202.10 9.50 215.42 10.68 227.73 19.78
  L 237.54 34.04
  C 243.23 47.67 241.62 61.66 241.45 76.67
  Q 241.44 77.64 242.39 77.49
  L 244.32 77.20
  A 1.99 1.99 0.0 0 1 246.48 79.89
  C 240.45 95.45 241.58 112.86 241.66 129.33
  Q 241.68 134.35 242.75 139.54
  C 245.06 150.83 246.28 157.19 244.90 167.84
  C 244.44 171.39 244.48 174.88 243.68 178.33
  Q 241.82 186.38 240.82 194.51
  Q 239.54 196.95 240.71 199.50
  Q 241.09 203.62 242.90 207.04
  A 1.01 1.01 0.0 0 1 241.61 208.45
  C 237.08 206.55 236.06 198.97 236.23 195.00
  C 236.74 183.31 240.88 170.61 241.25 157.85
  C 241.52 148.27 238.06 139.30 237.75 129.68
  C 237.45 119.98 237.73 110.29 237.81 100.58
  Q 237.88 92.12 240.51 84.03
  A 1.03 1.02 -54.5 0 0 240.36 83.11
  Q 238.10 80.06 238.18 76.26
  C 238.61 57.60 241.17 42.26 228.75 26.25
  C 222.75 18.50 211.97 15.63 202.74 14.90
  C 188.00 13.74 172.85 19.17 157.65 16.30
  Q 153.21 15.46 145.83 13.64
  C 137.49 11.59 129.68 13.02 120.87 13.39
  C 107.14 13.97 90.05 18.71 76.84 13.73
  C 75.41 13.19 74.06 13.79 72.74 13.68
  C 69.16 13.41 65.52 13.65 62.12 13.07
  C 55.15 11.89 45.55 8.76 39.12 9.66
  C 27.60 11.28 19.24 22.37 17.10 33.21
  Q 15.91 35.98 16.90 39.22
  C 18.81 49.54 22.14 59.80 24.30 71.10
  C 25.54 77.60 25.31 84.43 25.71 91.19
  Q 25.73 91.59 26.01 91.30
  C 29.31 87.77 27.60 78.31 26.25 73.46
  Q 26.12 72.99 26.58 72.82
  Q 27.68 72.41 28.07 73.41
  Q 31.77 82.85 29.94 93.45
  Q 28.21 95.16 28.58 97.79
  L 28.58 107.39
  A 0.84 0.84 0.0 0 1 27.50 108.19
  L 25.06 107.48
  A 0.83 0.83 0.0 0 0 24.00 108.26
  C 23.83 115.47 23.23 120.66 22.48 129.84
  Q 21.76 138.74 19.03 147.26
  C 17.78 151.16 18.34 154.27 18.09 158.23
  C 17.78 163.20 15.64 168.59 14.92 173.99
  A 0.28 0.28 0.0 0 0 15.42 174.19
  Q 18.65 170.00 18.43 164.58
  A 1.08 1.08 0.0 0 1 20.54 164.19
  C 22.61 170.35 17.21 177.83 15.57 183.56
  C 12.91 192.82 13.53 197.99 21.08 204.45
  C 31.20 213.12 55.53 214.49 69.35 211.82
  C 74.08 210.91 78.99 210.77 83.47 209.67
  C 97.71 206.19 109.85 203.65 124.41 204.31
  A 0.87 0.86 10.5 0 1 125.19 205.44
  C 125.00 206.05 124.40 206.48 123.71 206.48
  Q 115.85 206.52 107.83 206.50
  A 0.49 0.48 -39.2 0 0 107.73 207.46
  C 113.28 208.56 118.83 209.20 124.61 210.24
  C 127.03 210.68 131.02 209.90 132.98 211.04
  Q 133.42 211.29 133.92 211.28
  Q 138.78 211.16 143.62 211.33
  C 147.37 211.46 151.80 212.91 156.08 212.78
  C 159.01 212.70 163.49 213.16 166.75 212.00
  Q 167.49 211.73 167.28 211.02
  Q 167.15 210.61 166.72 210.65
  L 159.69 211.22
  Q 159.21 211.26 158.85 210.93
  Q 158.15 210.27 158.51 209.92
  Q 158.67 209.77 159.04 209.76
  C 169.43 209.59 177.43 206.01 186.49 202.47
  Q 188.83 201.55 194.69 202.06
  Q 195.36 203.49 197.02 204.10
  Q 197.28 205.16 198.58 205.18
  Q 212.52 205.33 221.01 208.46
  Q 227.90 211.01 235.23 212.04
  A 0.83 0.83 0.0 0 1 235.92 213.08
  C 234.87 216.91 225.12 213.64 222.77 212.73
  L 220.21 211.74
  Q 209.95 209.21 199.25 209.50
  Q 194.79 209.20 190.50 210.77
  L 184.78 212.07
  Q 182.40 211.79 180.76 213.17
  C 173.06 215.90 161.71 219.27 153.61 217.76
  C 142.57 215.70 132.88 214.27 122.28 218.94
  A 0.88 0.88 0.0 0 1 121.06 218.27
  L 120.65 215.48
  A 0.83 0.83 0.0 0 0 119.94 214.79
  L 107.78 213.17
  C 103.55 211.65 97.78 212.18 93.47 213.05
  L 81.25 215.29
  Q 78.82 214.91 76.95 216.39
  C 63.71 218.93 54.25 218.18 42.37 217.08
  C 37.89 216.67 33.66 214.99 29.29 213.82
  L 20.91 209.62
  C 13.97 203.75 8.98 195.96 9.46 186.55
  Q 10.58 183.28 9.54 180.72
  L 14.01 159.91
  Q 16.48 155.09 13.62 153.60
  Q 17.23 143.25 17.74 137.50
  Q 20.88 102.46 21.39 92.93
  Q 21.85 84.42 20.74 73.22
  Q 19.77 63.13 15.99 52.94
  C 14.72 47.82 12.80 42.20 12.96 37.21
  Q 13.32 26.21 20.53 17.47
  Q 22.61 14.95 24.78 12.20
  C 39.21 1.58 53.07 10.49 69.66 10.75
  Q 70.31 10.76 70.37 10.11
  L 70.57 8.13
  A 0.74 0.73 -70.2 0 1 71.71 7.59
  C 75.54 10.16 79.09 10.23 83.39 11.26
  Q 85.52 11.78 87.75 11.71
  Q 103.24 11.21 116.75 9.46
  C 127.30 8.08 137.63 7.42 147.73 10.24
  Z
  M 177.56 209.65
  L 193.74 205.01
  A 0.10 0.10 0.0 0 0 193.81 204.88
  L 193.80 204.85
  A 8.32 2.05 -16.0 0 0 185.24 205.18
  L 184.86 205.29
  A 8.32 2.05 -16.0 0 0 177.42 209.55
  L 177.43 209.58
  A 0.10 0.10 0.0 0 0 177.56 209.65
  Z"
/>
<path fill="#727c80" d="
  M 147.73 10.24
  L 154.74 11.72
  Q 151.31 12.18 147.73 10.24
  Z"
/>
<path fill="#c7aa91" d="
  M 24.78 12.20
  Q 22.61 14.95 20.53 17.47
  Q 13.32 26.21 12.96 37.21
  C 12.80 42.20 14.72 47.82 15.99 52.94
  Q 15.66 53.19 15.71 53.75
  C 9.94 37.86 10.72 23.19 24.78 12.20
  Z"
/>
<path fill="#2084d8" d="
  M 33.86 17.11
  Q 29.95 18.42 27.70 22.54
  Q 25.75 25.28 25.54 28.55
  L 24.87 32.11
  Q 24.73 32.87 24.02 32.55
  L 22.85 32.01
  Q 22.29 31.75 22.32 31.15
  Q 22.99 18.03 34.42 13.96
  C 38.48 12.51 42.35 12.69 45.84 15.10
  A 0.50 0.50 0.0 0 1 45.41 15.99
  Q 39.40 14.18 33.86 17.11
  Z"
/>
<path fill="#2084d8" d="
  M 127.79 15.98
  C 136.41 14.37 145.64 16.33 153.76 19.34
  C 159.04 21.30 170.02 20.10 173.75 19.28
  Q 176.83 18.60 177.42 21.25
  A 0.80 0.80 0.0 0 1 176.68 22.22
  C 170.29 22.54 161.43 24.96 155.35 22.55
  C 146.29 18.94 137.78 16.40 129.75 18.26
  Q 124.57 19.46 119.23 19.25
  A 1.02 1.01 88.0 0 1 118.27 18.35
  Q 118.15 17.34 119.53 17.08
  C 122.31 16.55 124.97 16.51 127.79 15.98
  Z"
/>
<path fill="#c7aa91" d="
  M 33.86 17.11
  L 27.65 23.19
  Q 27.87 22.94 27.70 22.54
  Q 29.95 18.42 33.86 17.11
  Z"
/>
<path fill="#c7aa91" d="
  M 227.73 19.78
  C 232.28 21.96 236.00 29.59 237.54 34.04
  L 227.73 19.78
  Z"
/>
<path fill="#727c80" d="
  M 27.70 22.54
  Q 27.87 22.94 27.65 23.19
  L 25.54 28.55
  Q 25.75 25.28 27.70 22.54
  Z"
/>
<path fill="#2084d8" d="
  M 233.07 62.12
  Q 231.78 61.83 231.58 60.52
  C 229.51 47.24 232.62 35.26 220.43 26.08
  A 0.44 0.43 62.9 0 1 220.68 25.30
  C 226.41 25.14 229.66 32.17 231.70 36.71
  C 234.62 43.19 234.56 52.68 235.23 59.86
  Q 235.34 61.03 234.96 61.58
  Q 234.37 62.42 233.07 62.12
  Z"
/>
<path fill="#323739" d="
  M 206.17 122.86
  L 208.57 120.46
  A 1.93 1.93 0.0 0 1 211.69 121.02
  L 215.10 128.38
  A 1.31 1.31 0.0 0 1 213.91 130.24
  L 207.25 130.25
  A 0.59 0.58 -2.7 0 0 206.67 130.88
  C 206.84 132.69 208.06 132.90 209.68 132.73
  Q 215.42 132.15 219.70 135.35
  A 1.50 1.50 0.0 0 0 222.06 134.53
  L 223.35 129.59
  A 0.52 0.52 0.0 0 1 224.23 129.36
  Q 226.56 131.83 227.94 134.92
  A 0.46 0.34 18.4 0 0 228.03 135.05
  L 230.28 137.51
  A 0.70 0.70 0.0 0 1 230.06 138.62
  L 225.34 140.79
  A 1.38 1.37 65.9 0 0 224.66 142.59
  C 226.74 147.31 223.68 157.95 222.59 163.06
  C 220.91 171.01 222.72 177.56 229.67 182.07
  A 1.16 1.16 0.0 0 1 230.19 183.20
  Q 230.03 184.36 228.95 184.34
  Q 228.39 184.34 227.67 183.88
  C 218.54 178.13 217.69 170.31 219.80 160.57
  Q 221.36 153.38 221.57 146.11
  A 0.41 0.41 0.0 0 0 220.77 145.99
  C 220.17 148.07 218.50 154.16 215.28 151.72
  Q 211.82 149.08 209.37 145.73
  A 1.28 1.28 0.0 0 1 209.89 143.80
  L 218.02 140.24
  A 0.79 0.79 0.0 0 0 218.29 138.98
  C 214.19 134.49 208.91 137.66 203.83 134.43
  A 1.65 1.64 -54.8 0 0 201.65 134.81
  L 199.06 138.17
  A 1.70 1.70 0.0 0 1 196.20 137.90
  Q 194.14 133.81 193.01 129.42
  Q 192.46 127.29 194.66 127.27
  L 200.26 127.21
  Q 200.84 127.21 200.88 126.62
  C 201.16 122.62 201.67 116.78 199.89 113.76
  Q 199.64 113.33 199.44 113.78
  L 197.83 117.54
  A 1.72 1.71 -56.4 0 1 195.07 118.10
  L 187.94 111.29
  A 1.17 1.17 0.0 0 1 188.72 109.27
  Q 191.70 109.18 194.47 107.97
  A 1.30 1.30 0.0 0 0 194.50 105.60
  C 189.97 103.45 185.11 103.07 180.52 100.83
  A 1.65 1.63 -64.1 0 0 178.32 101.60
  L 175.74 107.03
  A 0.62 0.62 0.0 0 1 174.61 106.99
  L 170.72 96.93
  A 0.71 0.70 -12.8 0 1 171.33 95.97
  L 175.56 95.67
  Q 176.01 95.64 175.99 95.19
  C 175.71 89.15 176.53 83.38 172.24 78.34
  A 1.48 1.48 0.0 0 0 169.64 79.15
  L 168.71 88.17
  A 1.62 1.62 0.0 0 1 166.07 89.26
  Q 162.71 86.51 158.57 85.22
  A 1.46 1.46 0.0 0 1 157.96 82.81
  Q 161.48 79.15 165.81 76.61
  A 1.01 1.01 0.0 0 0 165.74 74.83
  C 162.00 72.98 156.08 68.62 152.31 72.86
  A 1.04 1.01 21.6 0 1 151.50 73.20
  Q 149.02 73.09 145.78 74.31
  C 126.17 81.64 108.14 88.77 91.64 100.27
  A 1.35 1.35 0.0 0 1 89.98 100.17
  C 82.16 93.18 74.75 85.31 66.71 79.48
  Q 61.32 75.57 55.70 72.02
  C 50.82 68.93 45.36 66.99 39.94 64.83
  C 38.07 64.09 37.29 62.94 37.51 61.02
  Q 37.57 60.49 38.05 60.27
  Q 57.14 51.38 75.06 40.36
  C 80.14 37.23 84.51 33.50 89.00 29.65
  Q 89.87 28.89 90.87 29.48
  Q 115.40 44.00 138.52 59.92
  C 143.19 63.13 148.90 64.77 153.90 67.83
  Q 154.33 68.09 154.83 68.05
  C 159.35 67.68 163.47 69.74 167.58 71.28
  A 0.91 0.90 -77.1 0 0 168.80 70.51
  L 169.52 62.56
  Q 169.61 61.55 170.62 61.66
  C 172.53 61.88 173.42 63.93 174.60 64.93
  Q 176.66 66.67 178.81 68.60
  A 1.75 1.75 0.0 0 1 178.49 71.43
  L 174.16 73.83
  A 0.88 0.88 0.0 0 0 174.04 75.28
  C 180.11 80.19 178.76 84.60 179.82 91.86
  Q 179.91 92.49 180.35 92.03
  Q 182.59 89.64 183.73 86.54
  A 0.65 0.65 0.0 0 1 184.87 86.38
  L 190.06 93.52
  A 1.16 1.16 0.0 0 1 189.45 95.31
  L 184.01 96.93
  Q 183.42 97.10 183.74 97.62
  Q 185.02 99.68 186.23 99.85
  Q 192.36 100.72 198.30 103.73
  A 0.58 0.58 0.0 0 0 199.13 103.32
  L 200.16 97.55
  A 0.79 0.79 0.0 0 1 201.47 97.10
  L 208.94 103.79
  A 1.06 1.06 0.0 0 1 208.66 105.55
  L 202.72 108.20
  A 0.71 0.71 0.0 0 0 202.37 109.15
  Q 205.38 115.50 205.36 122.52
  Q 205.35 123.68 206.17 122.86
  Z
  M 148.64 67.88
  C 145.54 67.94 140.28 65.43 138.25 64.00
  Q 116.11 48.44 92.86 33.80
  A 0.75 0.75 0.0 0 0 91.71 34.34
  Q 90.66 42.33 89.95 50.77
  Q 89.66 54.18 92.40 64.43
  Q 92.52 64.88 92.98 64.78
  C 97.35 63.90 101.39 62.54 105.70 62.47
  Q 127.82 62.10 149.09 69.37
  A 0.68 0.68 0.0 0 0 149.76 68.21
  Q 149.37 67.87 148.64 67.88
  Z
  M 86.93 36.20
  C 84.16 38.73 81.64 40.89 78.54 42.71
  Q 64.22 51.09 48.46 59.41
  Q 47.73 59.79 48.55 59.76
  C 57.34 59.36 66.35 59.03 75.10 60.40
  Q 81.17 61.35 87.24 62.63
  Q 87.79 62.75 87.62 62.21
  C 85.12 54.00 86.12 44.74 87.49 36.51
  Q 87.65 35.55 86.93 36.20
  Z
  M 87.19 66.95
  Q 67.54 61.95 47.25 63.48
  A 0.29 0.29 0.0 0 0 47.18 64.05
  C 52.13 65.65 55.20 67.80 60.49 71.28
  Q 74.21 80.33 85.82 92.03
  A 0.33 0.33 0.0 0 0 86.37 91.74
  Q 84.18 79.70 87.77 68.00
  A 0.83 0.83 0.0 0 0 87.19 66.95
  Z
  M 141.72 71.13
  C 126.69 66.98 110.68 64.86 95.32 67.28
  Q 91.18 67.93 90.68 72.68
  Q 89.54 83.51 91.21 94.28
  Q 91.55 96.45 93.38 95.24
  C 108.31 85.39 125.29 78.81 141.76 71.72
  Q 142.58 71.37 141.72 71.13
  Z
  M 172.67 66.77
  A 0.63 0.63 0.0 0 0 171.62 67.15
  L 171.13 70.92
  A 0.63 0.63 0.0 0 0 172.06 71.56
  L 174.94 70.01
  A 0.63 0.63 0.0 0 0 175.07 68.99
  L 172.67 66.77
  Z
  M 162.10 82.62
  A 0.50 0.50 0.0 0 0 162.11 83.45
  L 165.37 85.52
  A 0.50 0.50 0.0 0 0 166.13 85.18
  L 166.94 80.32
  A 0.50 0.50 0.0 0 0 166.16 79.82
  L 162.10 82.62
  Z
  M 184.60 91.01
  L 183.18 92.82
  A 0.25 0.25 0.0 0 0 183.23 93.17
  L 183.54 93.42
  A 1.45 1.26 38.0 0 0 185.46 93.32
  L 185.63 93.10
  A 1.45 1.26 38.0 0 0 185.27 91.21
  L 184.95 90.96
  A 0.25 0.25 0.0 0 0 184.60 91.01
  Z
  M 175.94 101.33
  L 177.04 98.95
  A 0.24 0.24 0.0 0 0 176.92 98.63
  L 176.79 98.57
  A 1.82 1.47 24.7 0 0 174.52 99.15
  L 174.46 99.29
  A 1.82 1.47 24.7 0 0 175.50 101.39
  L 175.62 101.45
  A 0.24 0.24 0.0 0 0 175.94 101.33
  Z
  M 204.15 103.32
  L 202.86 102.19
  A 0.29 0.29 0.0 0 0 202.45 102.22
  L 202.19 102.51
  A 2.44 1.14 -48.8 0 0 201.44 105.10
  L 201.46 105.11
  A 2.44 1.14 -48.8 0 0 203.92 104.03
  L 204.18 103.73
  A 0.29 0.29 0.0 0 0 204.15 103.32
  Z
  M 196.71 111.59
  A 0.59 0.59 0.0 0 0 196.00 110.87
  L 193.57 111.47
  A 0.59 0.59 0.0 0 0 193.28 112.44
  L 195.05 114.42
  A 0.59 0.59 0.0 0 0 196.06 114.17
  L 196.71 111.59
  Z
  M 207.75 126.76
  L 210.41 126.74
  A 0.27 0.27 0.0 0 0 210.68 126.47
  L 210.68 126.29
  A 1.91 1.53 89.5 0 0 209.13 124.39
  L 208.99 124.39
  A 1.91 1.53 89.5 0 0 207.48 126.31
  L 207.48 126.49
  A 0.27 0.27 0.0 0 0 207.75 126.76
  Z
  M 198.87 134.60
  L 200.64 131.30
  A 0.14 0.14 0.0 0 0 200.58 131.11
  L 200.38 131.00
  A 3.11 1.96 28.1 0 0 196.71 131.27
  L 196.66 131.35
  A 3.11 1.96 28.1 0 0 198.48 134.55
  L 198.68 134.66
  A 0.14 0.14 0.0 0 0 198.87 134.60
  Z
  M 225.70 136.75
  A 1.01 1.01 0.0 0 0 224.69 135.74
  A 1.01 1.01 0.0 0 0 223.68 136.75
  A 1.01 1.01 0.0 0 0 224.69 137.76
  A 1.01 1.01 0.0 0 0 225.70 136.75
  Z
  M 213.36 145.35
  A 0.30 0.30 0.0 0 0 213.22 145.84
  L 215.92 148.89
  A 0.30 0.30 0.0 0 0 216.42 148.81
  L 218.31 144.42
  A 0.30 0.30 0.0 0 0 217.95 144.02
  L 213.36 145.35
  Z"
/>
<path fill="#c7aa91" d="
  M 17.10 33.21
  Q 18.01 35.91 16.90 39.22
  Q 15.91 35.98 17.10 33.21
  Z"
/>
<path fill="#24bd59" d="
  M 148.64 67.88
  Q 149.37 67.87 149.76 68.21
  A 0.68 0.68 0.0 0 1 149.09 69.37
  Q 127.82 62.10 105.70 62.47
  C 101.39 62.54 97.35 63.90 92.98 64.78
  Q 92.52 64.88 92.40 64.43
  Q 89.66 54.18 89.95 50.77
  Q 90.66 42.33 91.71 34.34
  A 0.75 0.75 0.0 0 1 92.86 33.80
  Q 116.11 48.44 138.25 64.00
  C 140.28 65.43 145.54 67.94 148.64 67.88
  Z"
/>
<path fill="#f7e510" d="
  M 86.93 36.20
  Q 87.65 35.55 87.49 36.51
  C 86.12 44.74 85.12 54.00 87.62 62.21
  Q 87.79 62.75 87.24 62.63
  Q 81.17 61.35 75.10 60.40
  C 66.35 59.03 57.34 59.36 48.55 59.76
  Q 47.73 59.79 48.46 59.41
  Q 64.22 51.09 78.54 42.71
  C 81.64 40.89 84.16 38.73 86.93 36.20
  Z"
/>
<path fill="#727c80" d="
  M 15.99 52.94
  Q 19.77 63.13 20.74 73.22
  L 15.71 53.75
  Q 15.66 53.19 15.99 52.94
  Z"
/>
<path fill="#2084d8" d="
  M 87.19 66.95
  A 0.83 0.83 0.0 0 1 87.77 68.00
  Q 84.18 79.70 86.37 91.74
  A 0.33 0.33 0.0 0 1 85.82 92.03
  Q 74.21 80.33 60.49 71.28
  C 55.20 67.80 52.13 65.65 47.18 64.05
  A 0.29 0.29 0.0 0 1 47.25 63.48
  Q 67.54 61.95 87.19 66.95
  Z"
/>
<path fill="#d8384d" d="
  M 141.72 71.13
  Q 142.58 71.37 141.76 71.72
  C 125.29 78.81 108.31 85.39 93.38 95.24
  Q 91.55 96.45 91.21 94.28
  Q 89.54 83.51 90.68 72.68
  Q 91.18 67.93 95.32 67.28
  C 110.68 64.86 126.69 66.98 141.72 71.13
  Z"
/>
<path fill="#ffffff" d="
  M 172.67 66.77
  L 175.07 68.99
  A 0.63 0.63 0.0 0 1 174.94 70.01
  L 172.06 71.56
  A 0.63 0.63 0.0 0 1 171.13 70.92
  L 171.62 67.15
  A 0.63 0.63 0.0 0 1 172.67 66.77
  Z"
/>
<path fill="#ffffff" d="
  M 162.10 82.62
  L 166.16 79.82
  A 0.50 0.50 0.0 0 1 166.94 80.32
  L 166.13 85.18
  A 0.50 0.50 0.0 0 1 165.37 85.52
  L 162.11 83.45
  A 0.50 0.50 0.0 0 1 162.10 82.62
  Z"
/>
<path fill="#ffffff" d="
  M 184.60 91.01
  A 0.25 0.25 0.0 0 1 184.95 90.96
  L 185.27 91.21
  A 1.45 1.26 38.0 0 1 185.63 93.10
  L 185.46 93.32
  A 1.45 1.26 38.0 0 1 183.54 93.42
  L 183.23 93.17
  A 0.25 0.25 0.0 0 1 183.18 92.82
  L 184.60 91.01
  Z"
/>
<path fill="#727c80" d="
  M 29.94 93.45
  L 28.58 97.79
  Q 28.21 95.16 29.94 93.45
  Z"
/>
<path fill="#ffffff" d="
  M 175.94 101.33
  A 0.24 0.24 0.0 0 1 175.62 101.45
  L 175.50 101.39
  A 1.82 1.47 24.7 0 1 174.46 99.29
  L 174.52 99.15
  A 1.82 1.47 24.7 0 1 176.79 98.57
  L 176.92 98.63
  A 0.24 0.24 0.0 0 1 177.04 98.95
  L 175.94 101.33
  Z"
/>
<path fill="#2084d8" d="
  M 157.98 110.27
  C 153.83 108.39 158.54 101.68 160.73 100.22
  Q 161.28 99.85 161.53 99.93
  A 0.83 0.83 0.0 0 1 161.86 101.32
  Q 158.31 104.77 158.74 109.73
  A 0.54 0.54 0.0 0 1 157.98 110.27
  Z"
/>
<path fill="#ffffff" d="
  M 204.15 103.32
  A 0.29 0.29 0.0 0 1 204.18 103.73
  L 203.92 104.03
  A 2.44 1.14 -48.8 0 1 201.46 105.11
  L 201.44 105.10
  A 2.44 1.14 -48.8 0 1 202.19 102.51
  L 202.45 102.22
  A 0.29 0.29 0.0 0 1 202.86 102.19
  L 204.15 103.32
  Z"
/>
<path fill="#ffffff" d="
  M 196.71 111.59
  L 196.06 114.17
  A 0.59 0.59 0.0 0 1 195.05 114.42
  L 193.28 112.44
  A 0.59 0.59 0.0 0 1 193.57 111.47
  L 196.00 110.87
  A 0.59 0.59 0.0 0 1 196.71 111.59
  Z"
/>
<path fill="#727c80" d="
  M 75.04 121.75
  L 80.46 117.33
  Q 81.19 116.73 80.33 116.34
  L 80.02 116.20
  Q 79.53 115.99 79.10 116.31
  Q 73.55 120.59 66.93 121.75
  Q 74.39 118.61 80.20 114.73
  Q 80.59 114.48 80.89 114.82
  C 83.57 117.76 76.95 121.06 75.04 121.75
  Z"
/>
<path fill="#c7aa91" d="
  M 122.45 117.73
  Q 112.59 112.11 107.88 121.77
  Q 112.05 109.52 122.45 117.73
  Z"
/>
<path fill="#18a9d9" d="
  M 168.70 128.86
  Q 170.63 131.52 172.96 130.92
  C 179.40 136.87 180.13 146.94 170.89 150.22
  Q 163.54 152.24 158.79 147.77
  Q 155.35 144.19 153.88 139.51
  A 0.59 0.59 0.0 0 1 154.26 138.78
  Q 154.77 138.61 155.16 138.77
  Q 155.46 138.90 155.68 139.40
  Q 157.98 144.83 162.80 147.69
  Q 166.94 149.36 170.02 146.51
  C 175.90 144.05 178.56 135.65 171.06 133.66
  Q 167.81 131.65 163.75 131.95
  C 158.47 128.06 157.73 121.60 163.44 117.84
  Q 168.22 114.68 174.39 115.11
  Q 174.88 115.14 175.25 115.47
  C 176.17 116.28 178.08 119.23 177.02 120.42
  Q 176.85 120.61 176.59 120.70
  Q 176.14 120.85 175.94 120.42
  L 175.15 118.73
  Q 174.91 118.23 174.36 118.28
  C 170.38 118.68 161.31 120.90 161.52 125.85
  Q 161.54 126.35 161.93 126.67
  Q 164.81 129.05 168.70 128.86
  Z"
/>
<path fill="#18a9d9" d="
  M 122.45 117.73
  Q 125.99 122.48 127.59 128.46
  Q 127.73 128.97 127.22 129.11
  L 117.32 131.85
  Q 113.84 131.69 112.82 133.26
  L 110.95 134.57
  Q 110.52 134.87 110.52 135.39
  Q 110.54 139.72 114.18 141.78
  Q 121.92 146.14 127.29 139.81
  Q 128.29 139.74 128.62 138.94
  A 1.02 1.01 -29.2 0 1 130.56 139.49
  Q 130.06 142.54 126.24 145.95
  Q 114.44 149.69 108.91 137.93
  C 108.24 136.50 107.16 135.96 105.79 135.43
  A 0.52 0.52 0.0 0 1 105.51 134.72
  L 106.57 132.60
  Q 106.78 132.18 106.83 131.71
  L 107.88 121.77
  Q 112.59 112.11 122.45 117.73
  Z
  M 115.41 128.99
  Q 118.52 129.90 120.42 127.43
  L 124.53 126.28
  A 0.57 0.57 0.0 0 0 124.92 125.56
  Q 122.66 118.55 115.66 119.34
  C 110.00 119.99 110.20 125.07 109.97 129.37
  A 1.11 1.11 0.0 0 0 111.48 130.47
  L 115.41 128.99
  Z"
/>
<path fill="#18a9d9" d="
  M 145.38 138.63
  Q 140.30 146.01 138.14 153.59
  Q 138.78 154.27 138.26 155.09
  Q 137.89 155.67 137.16 155.74
  C 134.82 155.94 135.03 152.76 135.46 151.28
  L 142.07 137.49
  Q 142.11 136.31 142.69 135.12
  Q 142.91 134.69 142.68 134.26
  Q 138.26 125.90 132.98 118.08
  Q 132.51 117.39 132.52 117.04
  A 0.83 0.79 -61.2 0 1 134.00 116.57
  L 143.32 131.42
  A 1.00 1.00 0.0 0 0 144.98 131.48
  Q 150.13 124.38 153.56 116.28
  A 0.71 0.71 0.0 0 1 154.81 116.18
  C 155.72 117.60 155.70 118.83 154.99 120.43
  Q 151.82 127.54 147.84 134.24
  C 146.88 135.85 147.33 136.80 148.50 138.01
  A 0.57 0.56 43.9 0 1 148.52 138.78
  Q 148.33 139.00 148.03 139.01
  Q 147.85 139.02 147.51 138.81
  Q 146.71 138.33 145.38 138.63
  Z"
/>
<path fill="#18a9d9" d="
  M 66.93 121.75
  Q 73.55 120.59 79.10 116.31
  Q 79.53 115.99 80.02 116.20
  L 80.33 116.34
  Q 81.19 116.73 80.46 117.33
  L 75.04 121.75
  L 68.83 124.82
  A 2.44 2.44 0.0 0 0 67.57 127.70
  Q 69.86 135.50 71.02 142.70
  C 72.65 152.78 62.85 159.55 53.86 154.40
  C 49.64 151.98 45.03 147.55 47.12 142.08
  Q 47.35 141.49 47.97 141.66
  C 50.69 142.44 50.03 146.22 50.02 148.31
  A 1.46 1.41 27.9 0 0 50.31 149.20
  C 56.09 157.04 67.48 153.83 67.91 144.00
  C 68.17 138.17 66.38 132.82 65.38 127.14
  Q 65.28 126.58 64.71 126.54
  Q 62.13 126.34 59.69 126.96
  Q 54.06 128.39 48.23 128.56
  Q 47.69 128.58 47.54 128.06
  L 47.26 127.10
  Q 49.05 126.01 51.48 125.35
  C 53.99 124.68 56.96 125.62 59.77 123.55
  L 63.35 122.64
  Q 63.93 122.49 63.83 121.90
  L 62.96 116.71
  A 0.70 0.69 -62.7 0 1 64.27 116.29
  L 66.93 121.75
  Z"
/>
<path fill="#ffffff" d="
  M 120.42 127.43
  L 115.41 128.99
  L 111.48 130.47
  A 1.11 1.11 0.0 0 1 109.97 129.37
  C 110.20 125.07 110.00 119.99 115.66 119.34
  Q 122.66 118.55 124.92 125.56
  A 0.57 0.57 0.0 0 1 124.53 126.28
  L 120.42 127.43
  Z"
/>
<path fill="#727c80" d="
  M 59.77 123.55
  C 56.96 125.62 53.99 124.68 51.48 125.35
  Q 49.05 126.01 47.26 127.10
  Q 47.15 126.58 47.62 125.44
  Q 47.80 124.98 48.30 124.99
  L 49.88 125.03
  Q 50.45 125.05 51.01 124.96
  L 59.77 123.55
  Z"
/>
<path fill="#ffffff" d="
  M 207.75 126.76
  A 0.27 0.27 0.0 0 1 207.48 126.49
  L 207.48 126.31
  A 1.91 1.53 89.5 0 1 208.99 124.39
  L 209.13 124.39
  A 1.91 1.53 89.5 0 1 210.68 126.29
  L 210.68 126.47
  A 0.27 0.27 0.0 0 1 210.41 126.74
  L 207.75 126.76
  Z"
/>
<path fill="#727c80" d="
  M 93.05 127.84
  Q 88.59 125.82 84.61 126.30
  A 0.85 0.82 -83.7 0 0 83.92 126.87
  L 83.54 128.00
  Q 83.09 127.22 83.11 126.40
  Q 83.13 125.87 83.64 125.75
  Q 89.09 124.42 93.05 127.84
  Z"
/>
<path fill="#18a9d9" d="
  M 93.05 127.84
  Q 101.92 133.00 100.31 143.45
  Q 97.28 148.04 92.69 151.07
  C 82.74 154.97 73.48 147.96 77.00 136.64
  L 83.46 129.50
  L 83.54 128.00
  L 83.92 126.87
  A 0.85 0.82 -83.7 0 1 84.61 126.30
  Q 88.59 125.82 93.05 127.84
  Z
  M 90.43 130.16
  Q 85.31 131.85 82.03 134.46
  C 78.76 137.81 75.25 146.81 82.35 148.37
  Q 87.17 149.44 91.91 147.58
  Q 95.81 146.55 96.80 142.42
  C 98.71 138.90 98.43 134.95 95.06 132.38
  Q 92.76 130.64 90.43 130.16
  Z"
/>
<path fill="#727c80" d="
  M 120.42 127.43
  Q 118.52 129.90 115.41 128.99
  L 120.42 127.43
  Z"
/>
<path fill="#727c80" d="
  M 168.70 128.86
  L 172.96 130.92
  Q 170.63 131.52 168.70 128.86
  Z"
/>
<path fill="#727c80" d="
  M 83.46 129.50
  L 77.00 136.64
  Q 78.74 132.02 83.46 129.50
  Z"
/>
<path fill="#ffffff" d="
  M 96.80 142.42
  L 91.91 147.58
  Q 87.17 149.44 82.35 148.37
  C 75.25 146.81 78.76 137.81 82.03 134.46
  Q 86.78 133.10 90.43 130.16
  Q 92.76 130.64 95.06 132.38
  C 98.43 134.95 98.71 138.90 96.80 142.42
  Z"
/>
<path fill="#727c80" d="
  M 90.43 130.16
  Q 86.78 133.10 82.03 134.46
  Q 85.31 131.85 90.43 130.16
  Z"
/>
<path fill="#ffffff" d="
  M 198.87 134.60
  A 0.14 0.14 0.0 0 1 198.68 134.66
  L 198.48 134.55
  A 3.11 1.96 28.1 0 1 196.66 131.35
  L 196.71 131.27
  A 3.11 1.96 28.1 0 1 200.38 131.00
  L 200.58 131.11
  A 0.14 0.14 0.0 0 1 200.64 131.30
  L 198.87 134.60
  Z"
/>
<path fill="#727c80" d="
  M 117.32 131.85
  L 112.82 133.26
  Q 113.84 131.69 117.32 131.85
  Z"
/>
<path fill="#727c80" d="
  M 163.75 131.95
  Q 167.81 131.65 171.06 133.66
  L 163.75 131.95
  Z"
/>
<circle fill="#ffffff" cx="224.69" cy="136.75" r="1.01"/>
<path fill="#727c80" d="
  M 126.24 145.95
  Q 130.06 142.54 130.56 139.49
  A 1.02 1.01 -29.2 0 0 128.62 138.94
  Q 128.29 139.74 127.29 139.81
  L 128.76 137.39
  A 0.66 0.66 0.0 0 1 129.64 137.15
  C 133.66 139.32 128.76 144.76 126.24 145.95
  Z"
/>
<path fill="#c7aa91" d="
  M 142.07 137.49
  L 135.46 151.28
  C 136.00 146.91 140.02 140.60 142.07 137.49
  Z"
/>
<path fill="#c7aa91" d="
  M 145.38 138.63
  Q 142.39 146.46 138.14 153.59
  Q 140.30 146.01 145.38 138.63
  Z"
/>
<path fill="#727c80" d="
  M 96.80 142.42
  Q 95.81 146.55 91.91 147.58
  L 96.80 142.42
  Z"
/>
<path fill="#727c80" d="
  M 100.31 143.45
  Q 98.55 149.19 92.69 151.07
  Q 97.28 148.04 100.31 143.45
  Z"
/>
<path fill="#ffffff" d="
  M 213.36 145.35
  L 217.95 144.02
  A 0.30 0.30 0.0 0 1 218.31 144.42
  L 216.42 148.81
  A 0.30 0.30 0.0 0 1 215.92 148.89
  L 213.22 145.84
  A 0.30 0.30 0.0 0 1 213.36 145.35
  Z"
/>
<path fill="#727c80" d="
  M 170.02 146.51
  Q 166.94 149.36 162.80 147.69
  L 170.02 146.51
  Z"
/>
<path fill="#727c80" d="
  M 158.79 147.77
  Q 163.54 152.24 170.89 150.22
  C 166.57 152.00 161.25 152.54 158.79 147.77
  Z"
/>
<path fill="#727c80" d="
  M 236.47 169.93
  A 0.27 0.27 0.0 0 1 236.23 169.63
  L 238.13 150.21
  A 0.78 0.21 5.6 0 1 238.93 150.07
  L 239.42 150.12
  A 0.78 0.21 5.6 0 1 240.18 150.41
  L 238.28 169.83
  A 0.27 0.27 0.0 0 1 237.98 170.08
  L 236.47 169.93
  Z"
/>
<path fill="#727c80" d="
  M 13.62 153.60
  Q 16.48 155.09 14.01 159.91
  Q 14.57 156.43 13.62 153.60
  Z"
/>
<path fill="#212022" d="
  M 132.95 173.62
  Q 140.04 180.89 133.95 186.71
  C 130.93 189.59 118.42 188.79 114.19 188.73
  A 1.16 1.15 -89.7 0 1 113.06 187.58
  L 112.87 159.97
  Q 112.87 159.58 113.25 159.57
  C 118.56 159.36 125.02 158.62 130.17 159.58
  C 136.45 160.75 138.05 168.55 133.05 172.33
  Q 132.27 172.92 132.95 173.62
  Z
  M 122.25 166.20
  L 122.23 170.16
  A 1.03 1.03 0.0 0 0 123.25 171.19
  L 124.33 171.20
  A 2.89 2.74 0.3 0 0 127.24 168.47
  L 127.24 167.93
  A 2.89 2.74 0.3 0 0 124.37 165.18
  L 123.29 165.17
  A 1.03 1.03 0.0 0 0 122.25 166.20
  Z
  M 122.26 176.67
  L 122.26 181.57
  A 0.90 0.90 0.0 0 0 123.16 182.47
  L 124.23 182.47
  A 3.03 2.56 0.0 0 0 127.26 179.91
  L 127.26 178.33
  A 3.03 2.56 0.0 0 0 124.23 175.77
  L 123.16 175.77
  A 0.90 0.90 0.0 0 0 122.26 176.67
  Z"
/>
<path fill="#212022" d="
  M 44.50 168.74
  L 44.50 188.42
  A 0.49 0.49 0.0 0 1 44.05 188.91
  L 36.28 189.47
  A 0.49 0.49 0.0 0 1 35.75 188.98
  L 35.75 168.02
  A 0.49 0.49 0.0 0 0 35.20 167.53
  L 30.04 168.22
  A 0.49 0.49 0.0 0 1 29.50 167.62
  L 31.32 160.54
  A 0.49 0.49 0.0 0 1 31.78 160.17
  L 50.00 159.63
  A 0.49 0.49 0.0 0 1 50.50 160.11
  L 50.50 167.76
  A 0.49 0.49 0.0 0 1 50.01 168.25
  L 44.99 168.25
  A 0.49 0.49 0.0 0 0 44.50 168.74
  Z"
/>
<path fill="#ffffff" d="
  M 122.25 166.20
  A 1.03 1.03 0.0 0 1 123.29 165.17
  L 124.37 165.18
  A 2.89 2.74 0.3 0 1 127.24 167.93
  L 127.24 168.47
  A 2.89 2.74 0.3 0 1 124.33 171.20
  L 123.25 171.19
  A 1.03 1.03 0.0 0 1 122.23 170.16
  L 122.25 166.20
  Z"
/>
<path fill="#212022" d="
  M 176.57 172.61
  L 179.44 165.74
  A 0.31 0.31 0.0 0 1 179.79 165.56
  L 186.49 167.06
  A 0.31 0.31 0.0 0 1 186.70 167.49
  L 182.25 176.83
  A 0.31 0.31 0.0 0 0 182.25 177.09
  L 186.84 186.88
  A 0.31 0.31 0.0 0 1 186.63 187.32
  L 179.61 188.77
  A 0.31 0.31 0.0 0 1 179.25 188.57
  L 176.77 180.90
  A 0.31 0.31 0.0 0 0 176.18 180.90
  L 173.80 188.64
  A 0.31 0.31 0.0 0 1 173.44 188.85
  L 166.43 187.40
  A 0.31 0.31 0.0 0 1 166.21 186.97
  L 170.63 177.17
  A 0.31 0.31 0.0 0 0 170.63 176.91
  L 166.06 167.55
  A 0.31 0.31 0.0 0 1 166.28 167.11
  L 173.15 165.62
  A 0.31 0.31 0.0 0 1 173.50 165.81
  L 176.00 172.60
  A 0.31 0.31 0.0 0 0 176.57 172.61
  Z"
/>
<path fill="#212022" d="
  M 163.38 177.55
  A 11.54 11.54 0.0 0 1 151.84 189.09
  A 11.54 11.54 0.0 0 1 140.30 177.55
  A 11.54 11.54 0.0 0 1 151.84 166.01
  A 11.54 11.54 0.0 0 1 163.38 177.55
  Z
  M 152.2010 181.8589
  A 4.35 3.97 85.9 0 0 155.8498 177.2362
  A 4.35 3.97 85.9 0 0 151.5790 173.1811
  A 4.35 3.97 85.9 0 0 147.9302 177.8038
  A 4.35 3.97 85.9 0 0 152.2010 181.8589
  Z"
/>
<path fill="#212022" d="
  M 88.96 178.78
  L 91.30 166.93
  A 0.45 0.45 0.0 0 1 91.80 166.57
  L 98.21 167.52
  A 0.45 0.45 0.0 0 1 98.58 168.10
  L 90.00 196.35
  A 0.45 0.45 0.0 0 1 89.52 196.66
  L 82.65 195.98
  A 0.45 0.45 0.0 0 1 82.27 195.38
  L 85.14 187.01
  A 0.45 0.45 0.0 0 0 85.13 186.70
  L 78.02 168.34
  A 0.45 0.45 0.0 0 1 78.36 167.73
  L 84.86 166.57
  A 0.45 0.45 0.0 0 1 85.38 166.91
  L 88.08 178.79
  A 0.45 0.45 0.0 0 0 88.96 178.78
  Z"
/>
<path fill="#212022" d="
  M 76.22 178.25
  A 11.57 11.57 0.0 0 1 64.65 189.82
  A 11.57 11.57 0.0 0 1 53.08 178.25
  A 11.57 11.57 0.0 0 1 64.65 166.68
  A 11.57 11.57 0.0 0 1 76.22 178.25
  Z
  M 64.7760 182.4589
  A 4.23 3.83 88.7 0 0 68.5090 178.1431
  A 4.23 3.83 88.7 0 0 64.5840 174.0011
  A 4.23 3.83 88.7 0 0 60.8510 178.3169
  A 4.23 3.83 88.7 0 0 64.7760 182.4589
  Z"
/>
<ellipse fill="#ffffff" cx="0.00" cy="0.00" transform="translate(151.89,177.52) rotate(85.9)" rx="4.35" ry="3.97"/>
<ellipse fill="#ffffff" cx="0.00" cy="0.00" transform="translate(64.68,178.23) rotate(88.7)" rx="4.23" ry="3.83"/>
<path fill="#ffffff" d="
  M 122.26 176.67
  A 0.90 0.90 0.0 0 1 123.16 175.77
  L 124.23 175.77
  A 3.03 2.56 -0.0 0 1 127.26 178.33
  L 127.26 179.91
  A 3.03 2.56 -0.0 0 1 124.23 182.47
  L 123.16 182.47
  A 0.90 0.90 0.0 0 1 122.26 181.57
  L 122.26 176.67
  Z"
/>
<path fill="#727c80" d="
  M 9.46 186.55
  L 9.54 180.72
  Q 10.58 183.28 9.46 186.55
  Z"
/>
<path fill="#727c80" d="
  M 240.82 194.51
  L 240.71 199.50
  Q 239.54 196.95 240.82 194.51
  Z"
/>
<path fill="#727c80" d="
  M 194.69 202.06
  Q 196.45 201.80 197.02 204.10
  Q 195.36 203.49 194.69 202.06
  Z"
/>
<path fill="#c7aa91" d="
  M 177.56 209.65
  A 0.10 0.10 0.0 0 1 177.43 209.58
  L 177.42 209.55
  A 8.32 2.05 -16.0 0 1 184.86 205.29
  L 185.24 205.18
  A 8.32 2.05 -16.0 0 1 193.80 204.85
  L 193.81 204.88
  A 0.10 0.10 0.0 0 1 193.74 205.01
  L 177.56 209.65
  Z"
/>
<path fill="#727c80" d="
  M 199.25 209.50
  Q 194.88 210.88 190.50 210.77
  Q 194.79 209.20 199.25 209.50
  Z"
/>
<path fill="#c7aa91" d="
  M 20.91 209.62
  L 29.29 213.82
  Q 24.34 212.99 20.91 209.62
  Z"
/>
<path fill="#c7aa91" d="
  M 220.21 211.74
  L 222.77 212.73
  Q 220.81 213.00 220.21 211.74
  Z"
/>
<path fill="#727c80" d="
  M 184.78 212.07
  Q 182.99 213.07 180.76 213.17
  Q 182.40 211.79 184.78 212.07
  Z"
/>
<path fill="#727c80" d="
  M 107.78 213.17
  L 93.47 213.05
  C 97.78 212.18 103.55 211.65 107.78 213.17
  Z"
/>
<path fill="#727c80" d="
  M 81.25 215.29
  L 76.95 216.39
  Q 78.82 214.91 81.25 215.29
  Z"
/>
</svg>
